<?xml version="1.0" encoding="UTF-8" standalone="no"?>
<!-- Created with Inkscape (http://www.inkscape.org/) -->

<svg
   xmlns:dc="http://purl.org/dc/elements/1.1/"
   xmlns:cc="http://creativecommons.org/ns#"
   xmlns:rdf="http://www.w3.org/1999/02/22-rdf-syntax-ns#"
   xmlns:svg="http://www.w3.org/2000/svg"
   xmlns="http://www.w3.org/2000/svg"
   xmlns:sodipodi="http://sodipodi.sourceforge.net/DTD/sodipodi-0.dtd"
   xmlns:inkscape="http://www.inkscape.org/namespaces/inkscape"
   version="1.1"
   id="svg33714"
   xml:space="preserve"
   width="33.333332"
   height="33.333332"
   viewBox="0 0 33.333332 33.333332"
   sodipodi:docname="socialIcons.svg"
   inkscape:version="0.92.2 5c3e80d, 2017-08-06"><metadata
     id="metadata33720"><rdf:RDF><cc:Work
         rdf:about=""><dc:format>image/svg+xml</dc:format><dc:type
           rdf:resource="http://purl.org/dc/dcmitype/StillImage" /><dc:title></dc:title></cc:Work></rdf:RDF></metadata><defs
     id="defs33718"><radialGradient
       fx="0"
       fy="0"
       cx="0"
       cy="0"
       r="1"
       gradientUnits="userSpaceOnUse"
       gradientTransform="matrix(32.6915,0,0,-32.6915,12.5,12.5)"
       spreadMethod="pad"
       id="radialGradient33738"><stop
         style="stop-opacity:1;stop-color:#ffffff"
         offset="0"
         id="stop33734" /><stop
         style="stop-opacity:1;stop-color:#100f0d"
         offset="1"
         id="stop33736" /></radialGradient><linearGradient
       x1="0"
       y1="0"
       x2="1"
       y2="0"
       gradientUnits="userSpaceOnUse"
       gradientTransform="matrix(0.8747,-5.9211,-5.9211,-0.8747,4.502,19.7744)"
       spreadMethod="pad"
       id="linearGradient33758"><stop
         style="stop-opacity:1;stop-color:#2a3986"
         offset="0"
         id="stop33752" /><stop
         style="stop-opacity:1;stop-color:#171c3b"
         offset="0.94086"
         id="stop33754" /><stop
         style="stop-opacity:1;stop-color:#171c3b"
         offset="1"
         id="stop33756" /></linearGradient><linearGradient
       x1="0"
       y1="0"
       x2="1"
       y2="0"
       gradientUnits="userSpaceOnUse"
       gradientTransform="matrix(0.0763,-6.5616,-6.5616,-0.0763,9.9414,20.0396)"
       spreadMethod="pad"
       id="linearGradient33782"><stop
         style="stop-opacity:1;stop-color:#46bb3a"
         offset="0"
         id="stop33774" /><stop
         style="stop-opacity:1;stop-color:#46bb3a"
         offset="0.132227"
         id="stop33776" /><stop
         style="stop-opacity:1;stop-color:#2c9c40"
         offset="0.793966"
         id="stop33778" /><stop
         style="stop-opacity:1;stop-color:#2c9c40"
         offset="1"
         id="stop33780" /></linearGradient><linearGradient
       x1="0"
       y1="0"
       x2="1"
       y2="0"
       gradientUnits="userSpaceOnUse"
       gradientTransform="matrix(0,-6.8924,-6.8924,0,14.917,20.648)"
       spreadMethod="pad"
       id="linearGradient33808"><stop
         style="stop-opacity:1;stop-color:#50abe3"
         offset="0"
         id="stop33800" /><stop
         style="stop-opacity:1;stop-color:#50abe3"
         offset="0.317204"
         id="stop33802" /><stop
         style="stop-opacity:1;stop-color:#3d84c9"
         offset="0.672043"
         id="stop33804" /><stop
         style="stop-opacity:1;stop-color:#3d84c9"
         offset="1"
         id="stop33806" /></linearGradient><clipPath
       clipPathUnits="userSpaceOnUse"
       id="clipPath33820"><path
         d="m 17.563,18.683 c 0.161,0 0.323,0 0.484,0 0.161,0 0.322,0 0.484,0 0.161,0 0.323,0 0.485,0 0.161,0 0.321,0 0.483,0 0.161,0 0.322,0 0.483,0 0.163,0 0.324,0 0.484,0 0.162,0 0.323,0 0.484,0 0.161,0 0.323,0 0.485,0 0.16,0 0.322,0 0.483,0 0.161,0 0.322,0 0.483,0 0,-0.162 0,-0.325 0,-0.485 0,-0.161 0,-0.323 0,-0.484 0,-0.161 0,-0.322 0,-0.485 0,-0.161 0,-0.323 0,-0.483 0,-0.162 0,-0.322 0,-0.483 0,-0.162 0,-0.325 0,-0.487 0,-0.159 0,-0.321 0,-0.482 0,-0.161 0,-0.323 0,-0.484 0,-0.162 0,-0.323 0,-0.484 0,-0.162 0,-0.324 0,-0.483 -0.161,0 -0.322,0 -0.483,0 -0.161,0 -0.323,0 -0.483,0 -0.162,0 -0.324,0 -0.485,0 -0.161,0 -0.322,0 -0.484,0 -0.16,0 -0.321,0 -0.484,0 -0.161,0 -0.322,0 -0.483,0 -0.162,0 -0.322,0 -0.483,0 -0.162,0 -0.324,0 -0.485,0 -0.162,0 -0.323,0 -0.484,0 -0.161,0 -0.323,0 -0.484,0 0,0.159 0,0.321 0,0.483 0,0.161 0,0.322 0,0.484 0,0.161 0,0.323 0,0.484 0,0.161 0,0.323 0,0.482 0,0.162 0,0.325 0,0.487 0,0.161 0,0.321 0,0.483 0,0.16 0,0.322 0,0.483 0,0.163 0,0.324 0,0.485 0,0.161 0,0.323 0,0.484 0,0.16 0,0.323 0,0.485"
         id="path33818"
         inkscape:connector-curvature="0" /></clipPath><clipPath
       clipPathUnits="userSpaceOnUse"
       id="clipPath33826"><path
         d="m 22.078,16.263 c 0,-1.159 -0.937,-2.097 -2.096,-2.097 -1.156,0 -2.094,0.938 -2.094,2.097 0,1.157 0.938,2.095 2.094,2.095 1.159,0 2.096,-0.938 2.096,-2.095"
         id="path33824"
         inkscape:connector-curvature="0" /></clipPath><clipPath
       clipPathUnits="userSpaceOnUse"
       id="clipPath33834"><path
         d="m 8196.56,8185.32 h 4.84 v 4.84 h -4.84 z"
         id="path33832"
         inkscape:connector-curvature="0" /></clipPath></defs><sodipodi:namedview
     pagecolor="#ffffff"
     bordercolor="#666666"
     borderopacity="1"
     objecttolerance="10"
     gridtolerance="10"
     guidetolerance="10"
     inkscape:pageopacity="0"
     inkscape:pageshadow="2"
     inkscape:window-width="1207"
     inkscape:window-height="676"
     id="namedview33716"
     showgrid="false"
     inkscape:zoom="7.0800003"
     inkscape:cx="16.666666"
     inkscape:cy="16.666666"
     inkscape:window-x="0"
     inkscape:window-y="0"
     inkscape:window-maximized="0"
     inkscape:current-layer="g33722" /><g
     id="g33722"
     inkscape:groupmode="layer"
     inkscape:label="socialIcons"
     transform="matrix(1.3333333,0,0,-1.3333333,0,33.333333)"><g
       id="g33724"><g
         id="g33726"><g
           id="g33732"><path
             d="M 0,25 H 24.96 V 0.06 L 0,0.06 Z"
             style="fill:url(#radialGradient33738);stroke:none"
             id="path33740"
             inkscape:connector-curvature="0" /></g></g></g><g
       id="g33742"><g
         id="g33744"><g
           id="g33750"><path
             d="M 7.113,16.276 C 7.113,15.179 6.27,14.275 5.199,14.19 5.14,14.179 5.08,14.179 5.021,14.179 c -0.157,0 -0.309,0.015 -0.454,0.049 -0.941,0.211 -1.644,1.048 -1.644,2.048 0,1.158 0.941,2.093 2.098,2.093 1.157,0 2.092,-0.935 2.092,-2.093"
             style="fill:url(#linearGradient33758);stroke:none"
             id="path33760"
             inkscape:connector-curvature="0" /></g></g></g><path
       d="m 5.259,16.714 c 0.032,0.038 0.097,0.065 0.189,0.065 0.086,0 0.189,-0.011 0.286,-0.039 l 0.082,0.44 c -0.168,0.059 -0.34,0.076 -0.519,0.076 -0.179,0 -0.319,-0.027 -0.433,-0.093 C 4.75,17.099 4.675,17.027 4.632,16.925 4.588,16.833 4.567,16.677 4.567,16.482 V 16.309 H 4.22 v -0.503 h 0.347 v -1.578 c 0.145,-0.034 0.297,-0.049 0.454,-0.049 0.059,0 0.119,0 0.178,0.011 v 1.616 h 0.46 v 0.503 h -0.46 v 0.163 c 0,0.124 0.017,0.199 0.06,0.242"
       style="fill:#ffffff;fill-opacity:1;fill-rule:nonzero;stroke:none"
       id="path33762"
       inkscape:connector-curvature="0" /><g
       id="g33764"><g
         id="g33766"><g
           id="g33772"><path
             d="m 12.08,16.278 c 0,-1.159 -0.939,-2.096 -2.096,-2.096 -1.157,0 -2.095,0.937 -2.095,2.096 0,1.158 0.938,2.095 2.095,2.095 1.157,0 2.096,-0.937 2.096,-2.095"
             style="fill:url(#linearGradient33782);stroke:none"
             id="path33784"
             inkscape:connector-curvature="0" /></g></g></g><path
       d="M 10.163,15.244 C 10.102,15.232 10.045,15.227 10.016,15.231 9.791,15.231 9.61,15.28 9.441,15.378 9.417,15.393 9.399,15.397 9.376,15.389 9.261,15.36 9.149,15.33 9.035,15.301 9.011,15.293 9.009,15.297 9.014,15.321 c 0.03,0.106 0.059,0.213 0.092,0.323 0.007,0.029 0.005,0.05 -0.013,0.075 -0.231,0.375 -0.221,0.839 0.037,1.186 0.269,0.36 0.639,0.509 1.078,0.415 0.433,-0.091 0.71,-0.373 0.809,-0.803 0.14,-0.59 -0.258,-1.176 -0.854,-1.273 z m 1.064,1.333 c -0.139,0.581 -0.64,0.976 -1.243,0.985 C 9.904,17.559 9.818,17.552 9.74,17.536 8.894,17.367 8.458,16.433 8.868,15.68 8.882,15.659 8.882,15.64 8.879,15.617 8.82,15.423 8.765,15.222 8.712,15.025 8.704,14.99 8.704,14.99 8.736,15 c 0.207,0.056 0.411,0.108 0.618,0.159 0.018,0.006 0.03,0.006 0.045,-0.003 0.265,-0.135 0.544,-0.171 0.837,-0.117 0.699,0.135 1.158,0.847 0.991,1.538"
       style="fill:#ffffff;fill-opacity:1;fill-rule:evenodd;stroke:none"
       id="path33786"
       inkscape:connector-curvature="0" /><path
       d="m 10.317,15.68 c -0.044,-0.004 -0.089,0.005 -0.132,0.018 -0.291,0.085 -0.512,0.264 -0.689,0.506 -0.066,0.09 -0.129,0.187 -0.148,0.3 -0.027,0.133 0.014,0.25 0.114,0.341 0.034,0.031 0.131,0.046 0.17,0.026 0.013,-0.012 0.02,-0.022 0.029,-0.035 0.036,-0.09 0.074,-0.174 0.111,-0.261 C 9.777,16.558 9.776,16.54 9.767,16.521 9.747,16.482 9.717,16.449 9.688,16.417 9.664,16.396 9.664,16.371 9.681,16.347 c 0.104,-0.175 0.245,-0.3 0.435,-0.373 0.027,-0.012 0.048,-0.008 0.065,0.014 0.033,0.037 0.065,0.078 0.095,0.118 0.019,0.026 0.044,0.03 0.071,0.019 0.063,-0.029 0.124,-0.059 0.184,-0.086 0.016,-0.008 0.028,-0.015 0.043,-0.019 0.063,-0.032 0.063,-0.037 0.055,-0.104 -0.008,-0.133 -0.11,-0.2 -0.227,-0.233 -0.031,-0.007 -0.057,-0.007 -0.085,-0.003"
       style="fill:#ffffff;fill-opacity:1;fill-rule:evenodd;stroke:none"
       id="path33788"
       inkscape:connector-curvature="0" /><g
       id="g33790"><g
         id="g33792"><g
           id="g33798"><path
             d="m 17.012,16.25 c 0,-1.156 -0.939,-2.096 -2.095,-2.096 -1.158,0 -2.096,0.94 -2.096,2.096 0,1.158 0.938,2.096 2.096,2.096 1.156,0 2.095,-0.938 2.095,-2.096"
             style="fill:url(#linearGradient33808);stroke:none"
             id="path33810"
             inkscape:connector-curvature="0" /></g></g></g><path
       d="m 13.648,15.397 c 0.2,-0.012 0.393,0.017 0.575,0.099 0.082,0.035 0.156,0.08 0.23,0.138 -0.087,0.003 -0.166,0.023 -0.238,0.059 -0.123,0.063 -0.21,0.161 -0.263,0.294 -0.012,0.03 -0.012,0.03 0.021,0.028 0.088,-0.009 0.152,-0.007 0.202,0.013 -0.048,0.017 -0.093,0.025 -0.13,0.05 -0.184,0.102 -0.281,0.259 -0.298,0.469 -0.002,0.024 0.005,0.027 0.027,0.016 0.065,-0.035 0.135,-0.05 0.216,-0.059 -0.035,0.032 -0.065,0.058 -0.092,0.085 -0.153,0.164 -0.189,0.425 -0.087,0.625 0.013,0.026 0.018,0.026 0.037,0.005 0.256,-0.295 0.576,-0.475 0.961,-0.536 0.039,-0.007 0.082,-0.008 0.122,-0.016 0.027,-0.004 0.03,0.009 0.026,0.029 -0.04,0.232 0.068,0.461 0.274,0.576 0.208,0.123 0.48,0.083 0.648,-0.081 0.019,-0.016 0.038,-0.02 0.06,-0.014 0.104,0.023 0.201,0.062 0.291,0.113 0.008,0.002 0.014,0.008 0.024,0.015 -0.039,-0.13 -0.117,-0.226 -0.233,-0.304 0.107,0.011 0.203,0.041 0.297,0.078 0.002,-0.014 -0.008,-0.021 -0.013,-0.031 -0.065,-0.089 -0.14,-0.168 -0.229,-0.234 -0.016,-0.013 -0.02,-0.024 -0.02,-0.045 0.007,-0.404 -0.122,-0.763 -0.38,-1.076 -0.242,-0.284 -0.552,-0.456 -0.92,-0.515 -0.391,-0.062 -0.758,0.005 -1.096,0.213 -0.004,0.003 -0.009,0.006 -0.012,0.006"
       style="fill:#ffffff;fill-opacity:1;fill-rule:evenodd;stroke:none"
       id="path33812"
       inkscape:connector-curvature="0" /><g
       id="g33814"><g
         id="g33816"
         clip-path="url(#clipPath33820)"><g
           id="g33822"
           clip-path="url(#clipPath33826)"><g
             id="g33828"
             transform="matrix(1,0,0,-1,-8178.9995,8204)"><g
               id="g33830"
               clip-path="url(#clipPath33834)"><path
                 d="m 8196.5633,8185.32 c 0.1601,0 0.3222,0 0.4833,0 0,0.081 0,0.1616 0,0.2421 -0.1611,0 -0.3232,0 -0.4833,0 0,-0.081 0,-0.1616 0,-0.2421 z"
                 style="fill:#474ba8;fill-opacity:1;fill-rule:nonzero;stroke:none"
                 id="path33836"
                 inkscape:connector-curvature="0" /><path
                 d="m 8196.5633,8185.5621 c 0.1601,0 0.3222,0 0.4833,0 0,0.081 0,0.1621 0,0.2422 -0.1611,0 -0.3232,0 -0.4833,0 0,-0.08 0,-0.1611 0,-0.2422 z"
                 style="fill:#4948a6;fill-opacity:1;fill-rule:nonzero;stroke:none"
                 id="path33838"
                 inkscape:connector-curvature="0" /><path
                 d="m 8197.0466,8185.32 c 0.1611,0 0.3222,0 0.4842,0 0,0.081 0,0.1616 0,0.2421 -0.162,0 -0.3231,0 -0.4842,0 0,-0.081 0,-0.1616 0,-0.2421 z"
                 style="fill:#4c47a5;fill-opacity:1;fill-rule:nonzero;stroke:none"
                 id="path33840"
                 inkscape:connector-curvature="0" /><path
                 d="m 8197.0466,8185.5621 c 0.1611,0 0.3222,0 0.4842,0 0,0.081 0,0.1621 0,0.2422 -0.162,0 -0.3231,0 -0.4842,0 0,-0.08 0,-0.1611 0,-0.2422 z"
                 style="fill:#5243a3;fill-opacity:1;fill-rule:nonzero;stroke:none"
                 id="path33842"
                 inkscape:connector-curvature="0" /><path
                 d="m 8197.5308,8185.32 c 0.1611,0 0.3232,0 0.4843,0 0,0.1611 0,0.3241 0,0.4843 -0.1611,0 -0.3232,0 -0.4843,0 0,-0.1602 0,-0.3232 0,-0.4843 z"
                 style="fill:#5540a2;fill-opacity:1;fill-rule:nonzero;stroke:none"
                 id="path33844"
                 inkscape:connector-curvature="0" /><path
                 d="m 8198.0151,8185.32 c 0.1611,0 0.3212,0 0.4833,0 0,0.081 0,0.1616 0,0.2421 -0.1621,0 -0.3222,0 -0.4833,0 0,-0.081 0,-0.1616 0,-0.2421 z"
                 style="fill:#5d3a9e;fill-opacity:1;fill-rule:nonzero;stroke:none"
                 id="path33846"
                 inkscape:connector-curvature="0" /><path
                 d="m 8198.0151,8185.5621 c 0.1611,0 0.3212,0 0.4833,0 0,0.081 0,0.1621 0,0.2422 -0.1621,0 -0.3222,0 -0.4833,0 0,-0.08 0,-0.1611 0,-0.2422 z"
                 style="fill:#6d2f99;fill-opacity:1;fill-rule:nonzero;stroke:none"
                 id="path33848"
                 inkscape:connector-curvature="0" /><path
                 d="m 8198.4984,8185.32 c 0.1611,0 0.3222,0 0.4833,0 0,0.081 0,0.1616 0,0.2421 -0.1611,0 -0.3222,0 -0.4833,0 0,-0.081 0,-0.1616 0,-0.2421 z"
                 style="fill:#67349b;fill-opacity:1;fill-rule:nonzero;stroke:none"
                 id="path33850"
                 inkscape:connector-curvature="0" /><path
                 d="m 8198.4984,8185.5621 c 0.1611,0 0.3222,0 0.4833,0 0,0.081 0,0.1621 0,0.2422 -0.1611,0 -0.3222,0 -0.4833,0 0,-0.08 0,-0.1611 0,-0.2422 z"
                 style="fill:#782996;fill-opacity:1;fill-rule:nonzero;stroke:none"
                 id="path33852"
                 inkscape:connector-curvature="0" /><path
                 d="m 8198.9817,8185.32 c 0.162,0 0.3231,0 0.4832,0 0,0.1611 0,0.3241 0,0.4843 -0.1601,0 -0.3212,0 -0.4832,0 0,-0.1602 0,-0.3232 0,-0.4843 z"
                 style="fill:#6c319a;fill-opacity:1;fill-rule:nonzero;stroke:none"
                 id="path33854"
                 inkscape:connector-curvature="0" /><path
                 d="m 8199.4649,8185.32 c 0.1621,0 0.3232,0 0.4843,0 0,0.1611 0,0.3241 0,0.4843 -0.1611,0 -0.3222,0 -0.4843,0 0,-0.1602 0,-0.3232 0,-0.4843 z"
                 style="fill:#6c329a;fill-opacity:1;fill-rule:nonzero;stroke:none"
                 id="path33856"
                 inkscape:connector-curvature="0" /><path
                 d="m 8199.9492,8185.32 c 0.1611,0 0.3231,0 0.4842,0 0,0.1611 0,0.3241 0,0.4843 -0.1611,0 -0.3231,0 -0.4842,0 0,-0.1602 0,-0.3232 0,-0.4843 z"
                 style="fill:#66359c;fill-opacity:1;fill-rule:nonzero;stroke:none"
                 id="path33858"
                 inkscape:connector-curvature="0" /><path
                 d="m 8200.4334,8185.32 c 0.1602,0 0.3222,0 0.4833,0 0,0.1611 0,0.3241 0,0.4843 -0.1611,0 -0.3231,0 -0.4833,0 0,-0.1602 0,-0.3232 0,-0.4843 z"
                 style="fill:#5e3a9e;fill-opacity:1;fill-rule:nonzero;stroke:none"
                 id="path33860"
                 inkscape:connector-curvature="0" /><path
                 d="m 8200.9167,8185.32 c 0.1611,0 0.3222,0 0.4833,0 0,0.1611 0,0.3241 0,0.4843 -0.1611,0 -0.3222,0 -0.4833,0 0,-0.1602 0,-0.3232 0,-0.4843 z"
                 style="fill:#583fa1;fill-opacity:1;fill-rule:nonzero;stroke:none"
                 id="path33862"
                 inkscape:connector-curvature="0" /><path
                 d="m 8196.5633,8185.8043 c 0.1601,0 0.3222,0 0.4833,0 0,0.081 0,0.161 0,0.2421 -0.1611,0 -0.3232,0 -0.4833,0 0,-0.081 0,-0.1616 0,-0.2421 z"
                 style="fill:#4d44a3;fill-opacity:1;fill-rule:nonzero;stroke:none"
                 id="path33864"
                 inkscape:connector-curvature="0" /><path
                 d="m 8196.5633,8186.0464 c 0.1601,0 0.3222,0 0.4833,0 0,0.081 0,0.1616 0,0.2421 -0.1611,0 -0.3232,0 -0.4833,0 0,-0.081 0,-0.1611 0,-0.2421 z"
                 style="fill:#553d9f;fill-opacity:1;fill-rule:nonzero;stroke:none"
                 id="path33866"
                 inkscape:connector-curvature="0" /><path
                 d="m 8197.0466,8185.8043 c 0.1611,0 0.3222,0 0.4842,0 0,0.081 0,0.161 0,0.2421 -0.162,0 -0.3231,0 -0.4842,0 0,-0.081 0,-0.1616 0,-0.2421 z"
                 style="fill:#5b3ca0;fill-opacity:1;fill-rule:nonzero;stroke:none"
                 id="path33868"
                 inkscape:connector-curvature="0" /><path
                 d="m 8197.0466,8186.0464 c 0.1611,0 0.3222,0 0.4842,0 0,0.081 0,0.1616 0,0.2421 -0.162,0 -0.3231,0 -0.4842,0 0,-0.081 0,-0.1611 0,-0.2421 z"
                 style="fill:#6e2f99;fill-opacity:1;fill-rule:nonzero;stroke:none"
                 id="path33870"
                 inkscape:connector-curvature="0" /><path
                 d="m 8197.5308,8185.8043 c 0.1611,0 0.3232,0 0.4843,0 0,0.161 0,0.3231 0,0.4842 -0.1611,0 -0.3232,0 -0.4843,0 0,-0.1611 0,-0.3232 0,-0.4842 z"
                 style="fill:#6f2e99;fill-opacity:1;fill-rule:nonzero;stroke:none"
                 id="path33872"
                 inkscape:connector-curvature="0" /><path
                 d="m 8198.0151,8185.8043 c 0.1611,0 0.3212,0 0.4833,0 0,0.161 0,0.3231 0,0.4842 -0.1621,0 -0.3222,0 -0.4833,0 0,-0.1611 0,-0.3232 0,-0.4842 z"
                 style="fill:#832193;fill-opacity:1;fill-rule:nonzero;stroke:none"
                 id="path33874"
                 inkscape:connector-curvature="0" /><path
                 d="m 8198.4984,8185.8043 c 0.1611,0 0.3222,0 0.4833,0 0,0.161 0,0.3231 0,0.4842 -0.1611,0 -0.3222,0 -0.4833,0 0,-0.1611 0,-0.3232 0,-0.4842 z"
                 style="fill:#90188f;fill-opacity:1;fill-rule:nonzero;stroke:none"
                 id="path33876"
                 inkscape:connector-curvature="0" /><path
                 d="m 8198.9817,8185.8043 c 0.162,0 0.3231,0 0.4832,0 0,0.161 0,0.3231 0,0.4842 -0.1601,0 -0.3212,0 -0.4832,0 0,-0.1611 0,-0.3232 0,-0.4842 z"
                 style="fill:#94178f;fill-opacity:1;fill-rule:nonzero;stroke:none"
                 id="path33878"
                 inkscape:connector-curvature="0" /><path
                 d="m 8199.4649,8185.8043 c 0.1621,0 0.3232,0 0.4843,0 0,0.161 0,0.3231 0,0.4842 -0.1611,0 -0.3222,0 -0.4843,0 0,-0.1611 0,-0.3232 0,-0.4842 z"
                 style="fill:#901a90;fill-opacity:1;fill-rule:nonzero;stroke:none"
                 id="path33880"
                 inkscape:connector-curvature="0" /><path
                 d="m 8199.9492,8185.8043 c 0.1611,0 0.3231,0 0.4842,0 0,0.161 0,0.3231 0,0.4842 -0.1611,0 -0.3231,0 -0.4842,0 0,-0.1611 0,-0.3232 0,-0.4842 z"
                 style="fill:#882093;fill-opacity:1;fill-rule:nonzero;stroke:none"
                 id="path33882"
                 inkscape:connector-curvature="0" /><path
                 d="m 8200.4334,8185.8043 c 0.1602,0 0.3222,0 0.4833,0 0,0.161 0,0.3231 0,0.4842 -0.1611,0 -0.3231,0 -0.4833,0 0,-0.1611 0,-0.3232 0,-0.4842 z"
                 style="fill:#792a97;fill-opacity:1;fill-rule:nonzero;stroke:none"
                 id="path33884"
                 inkscape:connector-curvature="0" /><path
                 d="m 8200.9167,8185.8043 c 0.1611,0 0.3222,0 0.4833,0 0,0.161 0,0.3231 0,0.4842 -0.1611,0 -0.3222,0 -0.4833,0 0,-0.1611 0,-0.3232 0,-0.4842 z"
                 style="fill:#69349b;fill-opacity:1;fill-rule:nonzero;stroke:none"
                 id="path33886"
                 inkscape:connector-curvature="0" /><path
                 d="m 8196.5633,8186.2885 c 0,0.1611 0,0.3222 0,0.4843 0.08,0 0.1611,0 0.2412,0 0,-0.1621 0,-0.3232 0,-0.4843 -0.08,0 -0.1611,0 -0.2412,0 z"
                 style="fill:#65329a;fill-opacity:1;fill-rule:nonzero;stroke:none"
                 id="path33888"
                 inkscape:connector-curvature="0" /><path
                 d="m 8196.8045,8186.2885 c 0.081,0 0.162,0 0.2421,0 0,0.081 0,0.1611 0,0.2416 -0.08,0 -0.1611,0 -0.2421,0 0,-0.081 0,-0.161 0,-0.2416 z"
                 style="fill:#772896;fill-opacity:1;fill-rule:nonzero;stroke:none"
                 id="path33890"
                 inkscape:connector-curvature="0" /><path
                 d="m 8196.8045,8186.5301 c 0.081,0 0.162,0 0.2421,0 0,0.081 0,0.1616 0,0.2427 -0.08,0 -0.1611,0 -0.2421,0 0,-0.081 0,-0.1621 0,-0.2427 z"
                 style="fill:#95188d;fill-opacity:1;fill-rule:nonzero;stroke:none"
                 id="path33892"
                 inkscape:connector-curvature="0" /><path
                 d="m 8197.0466,8186.2885 c 0.1611,0 0.3222,0 0.4842,0 0,0.081 0,0.1611 0,0.2416 -0.162,0 -0.3231,0 -0.4842,0 0,-0.081 0,-0.161 0,-0.2416 z"
                 style="fill:#891c90;fill-opacity:1;fill-rule:nonzero;stroke:none"
                 id="path33894"
                 inkscape:connector-curvature="0" /><path
                 d="m 8197.0466,8186.5301 c 0.1611,0 0.3222,0 0.4842,0 0,0.081 0,0.1616 0,0.2427 -0.162,0 -0.3231,0 -0.4842,0 0,-0.081 0,-0.1621 0,-0.2427 z"
                 style="fill:#a51783;fill-opacity:1;fill-rule:nonzero;stroke:none"
                 id="path33896"
                 inkscape:connector-curvature="0" /><path
                 d="m 8197.5308,8186.2885 c 0.1611,0 0.3232,0 0.4843,0 0,0.081 0,0.1611 0,0.2416 -0.1611,0 -0.3232,0 -0.4843,0 0,-0.081 0,-0.161 0,-0.2416 z"
                 style="fill:#a71482;fill-opacity:1;fill-rule:nonzero;stroke:none"
                 id="path33898"
                 inkscape:connector-curvature="0" /><path
                 d="m 8197.5308,8186.5301 c 0.1611,0 0.3232,0 0.4843,0 0,0.081 0,0.1616 0,0.2427 -0.1611,0 -0.3232,0 -0.4843,0 0,-0.081 0,-0.1621 0,-0.2427 z"
                 style="fill:#bd166c;fill-opacity:1;fill-rule:nonzero;stroke:none"
                 id="path33900"
                 inkscape:connector-curvature="0" /><path
                 d="m 8198.0151,8186.2885 c 0.1611,0 0.3212,0 0.4833,0 0,0.081 0,0.1611 0,0.2416 -0.1621,0 -0.3222,0 -0.4833,0 0,-0.081 0,-0.161 0,-0.2416 z"
                 style="fill:#b61376;fill-opacity:1;fill-rule:nonzero;stroke:none"
                 id="path33902"
                 inkscape:connector-curvature="0" /><path
                 d="m 8198.0151,8186.5301 c 0.1611,0 0.3212,0 0.4833,0 0,0.081 0,0.1616 0,0.2427 -0.1621,0 -0.3222,0 -0.4833,0 0,-0.081 0,-0.1621 0,-0.2427 z"
                 style="fill:#c91661;fill-opacity:1;fill-rule:nonzero;stroke:none"
                 id="path33904"
                 inkscape:connector-curvature="0" /><path
                 d="m 8198.4984,8186.2885 c 0.1611,0 0.3222,0 0.4833,0 0,0.081 0,0.1611 0,0.2416 -0.1611,0 -0.3222,0 -0.4833,0 0,-0.081 0,-0.161 0,-0.2416 z"
                 style="fill:#bb1271;fill-opacity:1;fill-rule:nonzero;stroke:none"
                 id="path33906"
                 inkscape:connector-curvature="0" /><path
                 d="m 8198.4984,8186.5301 c 0.1611,0 0.3222,0 0.4833,0 0,0.081 0,0.1616 0,0.2427 -0.1611,0 -0.3222,0 -0.4833,0 0,-0.081 0,-0.1621 0,-0.2427 z"
                 style="fill:#cc155e;fill-opacity:1;fill-rule:nonzero;stroke:none"
                 id="path33908"
                 inkscape:connector-curvature="0" /><path
                 d="m 8198.9817,8186.2885 c 0.162,0 0.3231,0 0.4832,0 0,0.081 0,0.1611 0,0.2416 -0.1601,0 -0.3212,0 -0.4832,0 0,-0.081 0,-0.161 0,-0.2416 z"
                 style="fill:#bb1274;fill-opacity:1;fill-rule:nonzero;stroke:none"
                 id="path33910"
                 inkscape:connector-curvature="0" /><path
                 d="m 8198.9817,8186.5301 c 0.162,0 0.3231,0 0.4832,0 0,0.081 0,0.1616 0,0.2427 -0.1601,0 -0.3212,0 -0.4832,0 0,-0.081 0,-0.1621 0,-0.2427 z"
                 style="fill:#cb1262;fill-opacity:1;fill-rule:nonzero;stroke:none"
                 id="path33912"
                 inkscape:connector-curvature="0" /><path
                 d="m 8199.4649,8186.2885 c 0.1621,0 0.3232,0 0.4843,0 0,0.1611 0,0.3222 0,0.4843 -0.1611,0 -0.3222,0 -0.4843,0 0,-0.1621 0,-0.3232 0,-0.4843 z"
                 style="fill:#b6117c;fill-opacity:1;fill-rule:nonzero;stroke:none"
                 id="path33914"
                 inkscape:connector-curvature="0" /><path
                 d="m 8199.9492,8186.2885 c 0.1611,0 0.3231,0 0.4842,0 0,0.1611 0,0.3222 0,0.4843 -0.1611,0 -0.3231,0 -0.4842,0 0,-0.1621 0,-0.3232 0,-0.4843 z"
                 style="fill:#b01186;fill-opacity:1;fill-rule:nonzero;stroke:none"
                 id="path33916"
                 inkscape:connector-curvature="0" /><path
                 d="m 8200.4334,8186.2885 c 0.1602,0 0.3222,0 0.4833,0 0,0.1611 0,0.3222 0,0.4843 -0.1611,0 -0.3231,0 -0.4833,0 0,-0.1621 0,-0.3232 0,-0.4843 z"
                 style="fill:#a4128e;fill-opacity:1;fill-rule:nonzero;stroke:none"
                 id="path33918"
                 inkscape:connector-curvature="0" /><path
                 d="m 8200.9167,8186.2885 c 0.1611,0 0.3222,0 0.4833,0 0,0.1611 0,0.3222 0,0.4843 -0.1611,0 -0.3222,0 -0.4833,0 0,-0.1621 0,-0.3232 0,-0.4843 z"
                 style="fill:#911d92;fill-opacity:1;fill-rule:nonzero;stroke:none"
                 id="path33920"
                 inkscape:connector-curvature="0" /><path
                 d="m 8196.5633,8186.7728 c 0.08,0 0.1611,0 0.2412,0 0,0.081 0,0.1611 0,0.2421 -0.08,0 -0.1611,0 -0.2412,0 0,-0.081 0,-0.1616 0,-0.2421 z"
                 style="fill:#9a1984;fill-opacity:1;fill-rule:nonzero;stroke:none"
                 id="path33922"
                 inkscape:connector-curvature="0" /><path
                 d="m 8196.5633,8187.0149 c 0.08,0 0.1611,0 0.2412,0 0,0.081 0,0.1611 0,0.2411 -0.08,0 -0.1611,0 -0.2412,0 0,-0.08 0,-0.1606 0,-0.2411 z"
                 style="fill:#b11c6d;fill-opacity:1;fill-rule:nonzero;stroke:none"
                 id="path33924"
                 inkscape:connector-curvature="0" /><path
                 d="m 8196.8045,8186.7728 c 0.081,0 0.162,0 0.2421,0 0,0.081 0,0.1611 0,0.2421 -0.08,0 -0.1611,0 -0.2421,0 0,-0.081 0,-0.1616 0,-0.2421 z"
                 style="fill:#ae1977;fill-opacity:1;fill-rule:nonzero;stroke:none"
                 id="path33926"
                 inkscape:connector-curvature="0" /><path
                 d="m 8196.8045,8187.0149 c 0.081,0 0.162,0 0.2421,0 0,0.081 0,0.1611 0,0.2411 -0.08,0 -0.1611,0 -0.2421,0 0,-0.08 0,-0.1606 0,-0.2411 z"
                 style="fill:#c31e62;fill-opacity:1;fill-rule:nonzero;stroke:none"
                 id="path33928"
                 inkscape:connector-curvature="0" /><path
                 d="m 8197.0466,8186.7728 c 0.08,0 0.1611,0 0.2421,0 0,0.081 0,0.1611 0,0.2421 -0.081,0 -0.1621,0 -0.2421,0 0,-0.081 0,-0.1616 0,-0.2421 z"
                 style="fill:#be196b;fill-opacity:1;fill-rule:nonzero;stroke:none"
                 id="path33930"
                 inkscape:connector-curvature="0" /><path
                 d="m 8197.0466,8187.0149 c 0.08,0 0.1611,0 0.2421,0 0,0.081 0,0.1611 0,0.2411 -0.081,0 -0.1621,0 -0.2421,0 0,-0.08 0,-0.1606 0,-0.2411 z"
                 style="fill:#d12156;fill-opacity:1;fill-rule:nonzero;stroke:none"
                 id="path33932"
                 inkscape:connector-curvature="0" /><path
                 d="m 8197.2887,8186.7728 c 0.08,0 0.1611,0 0.2421,0 0,0.081 0,0.1611 0,0.2421 -0.081,0 -0.162,0 -0.2421,0 0,-0.081 0,-0.1616 0,-0.2421 z"
                 style="fill:#c91b61;fill-opacity:1;fill-rule:nonzero;stroke:none"
                 id="path33934"
                 inkscape:connector-curvature="0" /><path
                 d="m 8197.2887,8187.0149 c 0.08,0 0.1611,0 0.2421,0 0,0.081 0,0.1611 0,0.2411 -0.081,0 -0.162,0 -0.2421,0 0,-0.08 0,-0.1606 0,-0.2411 z"
                 style="fill:#d9244c;fill-opacity:1;fill-rule:nonzero;stroke:none"
                 id="path33936"
                 inkscape:connector-curvature="0" /><path
                 d="m 8197.5308,8186.7728 c 0.1611,0 0.3232,0 0.4843,0 0,0.081 0,0.1611 0,0.2421 -0.1611,0 -0.3232,0 -0.4843,0 0,-0.081 0,-0.1616 0,-0.2421 z"
                 style="fill:#cf1d58;fill-opacity:1;fill-rule:nonzero;stroke:none"
                 id="path33938"
                 inkscape:connector-curvature="0" /><path
                 d="m 8197.5308,8187.0149 c 0.1611,0 0.3232,0 0.4843,0 0,0.081 0,0.1611 0,0.2411 -0.1611,0 -0.3232,0 -0.4843,0 0,-0.08 0,-0.1606 0,-0.2411 z"
                 style="fill:#df2844;fill-opacity:1;fill-rule:nonzero;stroke:none"
                 id="path33940"
                 inkscape:connector-curvature="0" /><path
                 d="m 8198.0151,8186.7728 c 0.1611,0 0.3212,0 0.4833,0 0,0.1611 0,0.3231 0,0.4832 -0.1621,0 -0.3222,0 -0.4833,0 0,-0.1601 0,-0.3221 0,-0.4832 z"
                 style="fill:#d8204d;fill-opacity:1;fill-rule:nonzero;stroke:none"
                 id="path33942"
                 inkscape:connector-curvature="0" /><path
                 d="m 8198.4984,8186.7728 c 0.1611,0 0.3222,0 0.4833,0 0,0.1611 0,0.3231 0,0.4832 -0.1611,0 -0.3222,0 -0.4833,0 0,-0.1601 0,-0.3221 0,-0.4832 z"
                 style="fill:#da1d4c;fill-opacity:1;fill-rule:nonzero;stroke:none"
                 id="path33944"
                 inkscape:connector-curvature="0" /><path
                 d="m 8198.9817,8186.7728 c 0.162,0 0.3231,0 0.4832,0 0,0.1611 0,0.3231 0,0.4832 -0.1601,0 -0.3212,0 -0.4832,0 0,-0.1601 0,-0.3221 0,-0.4832 z"
                 style="fill:#d81851;fill-opacity:1;fill-rule:nonzero;stroke:none"
                 id="path33946"
                 inkscape:connector-curvature="0" /><path
                 d="m 8199.4649,8186.7728 c 0.1621,0 0.3232,0 0.4843,0 0,0.1611 0,0.3231 0,0.4832 -0.1611,0 -0.3222,0 -0.4843,0 0,-0.1601 0,-0.3221 0,-0.4832 z"
                 style="fill:#d3125b;fill-opacity:1;fill-rule:nonzero;stroke:none"
                 id="path33948"
                 inkscape:connector-curvature="0" /><path
                 d="m 8199.9492,8186.7728 c 0.1611,0 0.3231,0 0.4842,0 0,0.1611 0,0.3231 0,0.4832 -0.1611,0 -0.3231,0 -0.4842,0 0,-0.1601 0,-0.3221 0,-0.4832 z"
                 style="fill:#cb1167;fill-opacity:1;fill-rule:nonzero;stroke:none"
                 id="path33950"
                 inkscape:connector-curvature="0" /><path
                 d="m 8200.4334,8186.7728 c 0.1602,0 0.3222,0 0.4833,0 0,0.1611 0,0.3231 0,0.4832 -0.1611,0 -0.3231,0 -0.4833,0 0,-0.1601 0,-0.3221 0,-0.4832 z"
                 style="fill:#c11077;fill-opacity:1;fill-rule:nonzero;stroke:none"
                 id="path33952"
                 inkscape:connector-curvature="0" /><path
                 d="m 8200.9167,8186.7728 c 0.1611,0 0.3222,0 0.4833,0 0,0.1611 0,0.3231 0,0.4832 -0.1611,0 -0.3222,0 -0.4833,0 0,-0.1601 0,-0.3221 0,-0.4832 z"
                 style="fill:#b41088;fill-opacity:1;fill-rule:nonzero;stroke:none"
                 id="path33954"
                 inkscape:connector-curvature="0" /><path
                 d="m 8196.5633,8187.256 c 0,0.1621 0,0.3222 0,0.4833 0.08,0 0.1611,0 0.2412,0 0,-0.1611 0,-0.3212 0,-0.4833 -0.08,0 -0.1611,0 -0.2412,0 z"
                 style="fill:#c62258;fill-opacity:1;fill-rule:nonzero;stroke:none"
                 id="path33956"
                 inkscape:connector-curvature="0" /><path
                 d="m 8196.8045,8187.256 c 0,0.1621 0,0.3222 0,0.4833 0.081,0 0.162,0 0.2421,0 0,-0.1611 0,-0.3212 0,-0.4833 -0.08,0 -0.1611,0 -0.2421,0 z"
                 style="fill:#d4284d;fill-opacity:1;fill-rule:nonzero;stroke:none"
                 id="path33958"
                 inkscape:connector-curvature="0" /><path
                 d="m 8197.0466,8187.256 c 0.1611,0 0.3222,0 0.4842,0 0,0.081 0,0.1616 0,0.2422 -0.162,0 -0.3231,0 -0.4842,0 0,-0.081 0,-0.1611 0,-0.2422 z"
                 style="fill:#e02c44;fill-opacity:1;fill-rule:nonzero;stroke:none"
                 id="path33960"
                 inkscape:connector-curvature="0" /><path
                 d="m 8197.0466,8187.4982 c 0.1611,0 0.3222,0 0.4842,0 0,0.08 0,0.1606 0,0.2411 -0.162,0 -0.3231,0 -0.4842,0 0,-0.081 0,-0.1611 0,-0.2411 z"
                 style="fill:#e83536;fill-opacity:1;fill-rule:nonzero;stroke:none"
                 id="path33962"
                 inkscape:connector-curvature="0" /><path
                 d="m 8197.5308,8187.256 c 0.1611,0 0.3232,0 0.4843,0 0,0.081 0,0.1616 0,0.2422 -0.1611,0 -0.3232,0 -0.4843,0 0,-0.081 0,-0.1611 0,-0.2422 z"
                 style="fill:#ea3236;fill-opacity:1;fill-rule:nonzero;stroke:none"
                 id="path33964"
                 inkscape:connector-curvature="0" /><path
                 d="m 8197.5308,8187.4982 c 0.1611,0 0.3232,0 0.4843,0 0,0.08 0,0.1606 0,0.2411 -0.1611,0 -0.3232,0 -0.4843,0 0,-0.081 0,-0.1611 0,-0.2411 z"
                 style="fill:#ee3b2e;fill-opacity:1;fill-rule:nonzero;stroke:none"
                 id="path33966"
                 inkscape:connector-curvature="0" /><path
                 d="m 8198.0151,8187.256 c 0.1611,0 0.3212,0 0.4833,0 0,0.1621 0,0.3222 0,0.4833 -0.1621,0 -0.3222,0 -0.4833,0 0,-0.1611 0,-0.3212 0,-0.4833 z"
                 style="fill:#ec3334;fill-opacity:1;fill-rule:nonzero;stroke:none"
                 id="path33968"
                 inkscape:connector-curvature="0" /><path
                 d="m 8198.4984,8187.256 c 0.1611,0 0.3222,0 0.4833,0 0,0.1621 0,0.3222 0,0.4833 -0.1611,0 -0.3222,0 -0.4833,0 0,-0.1611 0,-0.3212 0,-0.4833 z"
                 style="fill:#eb3235;fill-opacity:1;fill-rule:nonzero;stroke:none"
                 id="path33970"
                 inkscape:connector-curvature="0" /><path
                 d="m 8198.9817,8187.256 c 0.162,0 0.3231,0 0.4832,0 0,0.1621 0,0.3222 0,0.4833 -0.1601,0 -0.3212,0 -0.4832,0 0,-0.1611 0,-0.3212 0,-0.4833 z"
                 style="fill:#e82a3a;fill-opacity:1;fill-rule:nonzero;stroke:none"
                 id="path33972"
                 inkscape:connector-curvature="0" /><path
                 d="m 8199.4649,8187.256 c 0.1621,0 0.3232,0 0.4843,0 0,0.1621 0,0.3222 0,0.4833 -0.1611,0 -0.3222,0 -0.4843,0 0,-0.1611 0,-0.3212 0,-0.4833 z"
                 style="fill:#e31f43;fill-opacity:1;fill-rule:nonzero;stroke:none"
                 id="path33974"
                 inkscape:connector-curvature="0" /><path
                 d="m 8199.9492,8187.256 c 0.1611,0 0.3231,0 0.4842,0 0,0.1621 0,0.3222 0,0.4833 -0.1611,0 -0.3231,0 -0.4842,0 0,-0.1611 0,-0.3212 0,-0.4833 z"
                 style="fill:#dd144f;fill-opacity:1;fill-rule:nonzero;stroke:none"
                 id="path33976"
                 inkscape:connector-curvature="0" /><path
                 d="m 8200.4334,8187.256 c 0.1602,0 0.3222,0 0.4833,0 0,0.1621 0,0.3222 0,0.4833 -0.1611,0 -0.3231,0 -0.4833,0 0,-0.1611 0,-0.3212 0,-0.4833 z"
                 style="fill:#d4115e;fill-opacity:1;fill-rule:nonzero;stroke:none"
                 id="path33978"
                 inkscape:connector-curvature="0" /><path
                 d="m 8200.9167,8187.256 c 0.1611,0 0.3222,0 0.4833,0 0,0.1621 0,0.3222 0,0.4833 -0.1611,0 -0.3222,0 -0.4833,0 0,-0.1611 0,-0.3212 0,-0.4833 z"
                 style="fill:#ca106f;fill-opacity:1;fill-rule:nonzero;stroke:none"
                 id="path33980"
                 inkscape:connector-curvature="0" /><path
                 d="m 8196.5633,8187.7393 c 0,0.1621 0,0.3242 0,0.4862 0.08,0 0.1611,0 0.2412,0 0,-0.162 0,-0.3241 0,-0.4862 -0.08,0 -0.1611,0 -0.2412,0 z"
                 style="fill:#de3339;fill-opacity:1;fill-rule:nonzero;stroke:none"
                 id="path33982"
                 inkscape:connector-curvature="0" /><path
                 d="m 8196.8045,8187.7393 c 0,0.1621 0,0.3242 0,0.4862 0.081,0 0.162,0 0.2421,0 0,-0.162 0,-0.3241 0,-0.4862 -0.08,0 -0.1611,0 -0.2421,0 z"
                 style="fill:#e83932;fill-opacity:1;fill-rule:nonzero;stroke:none"
                 id="path33984"
                 inkscape:connector-curvature="0" /><path
                 d="m 8197.0466,8187.7393 c 0.1611,0 0.3222,0 0.4842,0 0,0.081 0,0.1621 0,0.2431 -0.162,0 -0.3231,0 -0.4842,0 0,-0.081 0,-0.162 0,-0.2431 z"
                 style="fill:#ee3e2d;fill-opacity:1;fill-rule:nonzero;stroke:none"
                 id="path33986"
                 inkscape:connector-curvature="0" /><path
                 d="m 8197.0466,8187.9824 c 0.1611,0 0.3222,0 0.4842,0 0,0.081 0,0.1621 0,0.2431 -0.162,0 -0.3231,0 -0.4842,0 0,-0.081 0,-0.162 0,-0.2431 z"
                 style="fill:#f04528;fill-opacity:1;fill-rule:nonzero;stroke:none"
                 id="path33988"
                 inkscape:connector-curvature="0" /><path
                 d="m 8197.5308,8187.7393 c 0.1611,0 0.3232,0 0.4843,0 0,0.1621 0,0.3242 0,0.4862 -0.1611,0 -0.3232,0 -0.4843,0 0,-0.162 0,-0.3241 0,-0.4862 z"
                 style="fill:#f04329;fill-opacity:1;fill-rule:nonzero;stroke:none"
                 id="path33990"
                 inkscape:connector-curvature="0" /><path
                 d="m 8198.0151,8187.7393 c 0.1611,0 0.3212,0 0.4833,0 0,0.1621 0,0.3242 0,0.4862 -0.1621,0 -0.3222,0 -0.4833,0 0,-0.162 0,-0.3241 0,-0.4862 z"
                 style="fill:#f04329;fill-opacity:1;fill-rule:nonzero;stroke:none"
                 id="path33992"
                 inkscape:connector-curvature="0" /><path
                 d="m 8198.4984,8187.7393 c 0.1611,0 0.3222,0 0.4833,0 0,0.1621 0,0.3242 0,0.4862 -0.1611,0 -0.3222,0 -0.4833,0 0,-0.162 0,-0.3241 0,-0.4862 z"
                 style="fill:#ef412a;fill-opacity:1;fill-rule:nonzero;stroke:none"
                 id="path33994"
                 inkscape:connector-curvature="0" /><path
                 d="m 8198.9817,8187.7393 c 0.162,0 0.3231,0 0.4832,0 0,0.1621 0,0.3242 0,0.4862 -0.1601,0 -0.3212,0 -0.4832,0 0,-0.162 0,-0.3241 0,-0.4862 z"
                 style="fill:#ef3b2e;fill-opacity:1;fill-rule:nonzero;stroke:none"
                 id="path33996"
                 inkscape:connector-curvature="0" /><path
                 d="m 8199.4649,8187.7393 c 0.1621,0 0.3232,0 0.4843,0 0,0.1621 0,0.3242 0,0.4862 -0.1611,0 -0.3222,0 -0.4843,0 0,-0.162 0,-0.3241 0,-0.4862 z"
                 style="fill:#ed3134;fill-opacity:1;fill-rule:nonzero;stroke:none"
                 id="path33998"
                 inkscape:connector-curvature="0" /><path
                 d="m 8199.9492,8187.7393 c 0.1611,0 0.3231,0 0.4842,0 0,0.1621 0,0.3242 0,0.4862 -0.1611,0 -0.3231,0 -0.4842,0 0,-0.162 0,-0.3241 0,-0.4862 z"
                 style="fill:#e7223e;fill-opacity:1;fill-rule:nonzero;stroke:none"
                 id="path34000"
                 inkscape:connector-curvature="0" /><path
                 d="m 8200.4334,8187.7393 c 0.1602,0 0.3222,0 0.4833,0 0,0.1621 0,0.3242 0,0.4862 -0.1611,0 -0.3231,0 -0.4833,0 0,-0.162 0,-0.3241 0,-0.4862 z"
                 style="fill:#e0154c;fill-opacity:1;fill-rule:nonzero;stroke:none"
                 id="path34002"
                 inkscape:connector-curvature="0" /><path
                 d="m 8200.9167,8187.7393 c 0.1611,0 0.3222,0 0.4833,0 0,0.1621 0,0.3242 0,0.4862 -0.1611,0 -0.3222,0 -0.4833,0 0,-0.162 0,-0.3241 0,-0.4862 z"
                 style="fill:#d9115c;fill-opacity:1;fill-rule:nonzero;stroke:none"
                 id="path34004"
                 inkscape:connector-curvature="0" /><path
                 d="m 8196.5633,8188.2255 c 0,0.1592 0,0.3212 0,0.4823 0.08,0 0.1611,0 0.2412,0 0,-0.1611 0,-0.3231 0,-0.4823 -0.08,0 -0.1611,0 -0.2412,0 z"
                 style="fill:#e84427;fill-opacity:1;fill-rule:nonzero;stroke:none"
                 id="path34006"
                 inkscape:connector-curvature="0" /><path
                 d="m 8196.8045,8188.2255 c 0,0.1592 0,0.3212 0,0.4823 0.081,0 0.162,0 0.2421,0 0,-0.1611 0,-0.3231 0,-0.4823 -0.08,0 -0.1611,0 -0.2421,0 z"
                 style="fill:#ee4926;fill-opacity:1;fill-rule:nonzero;stroke:none"
                 id="path34008"
                 inkscape:connector-curvature="0" /><path
                 d="m 8197.0466,8188.2255 c 0.1611,0 0.3222,0 0.4842,0 0,0.1592 0,0.3212 0,0.4823 -0.162,0 -0.3231,0 -0.4842,0 0,-0.1611 0,-0.3231 0,-0.4823 z"
                 style="fill:#f04d27;fill-opacity:1;fill-rule:nonzero;stroke:none"
                 id="path34010"
                 inkscape:connector-curvature="0" /><path
                 d="m 8197.5308,8188.2255 c 0.1611,0 0.3232,0 0.4843,0 0,0.1592 0,0.3212 0,0.4823 -0.1611,0 -0.3232,0 -0.4843,0 0,-0.1611 0,-0.3231 0,-0.4823 z"
                 style="fill:#f05428;fill-opacity:1;fill-rule:nonzero;stroke:none"
                 id="path34012"
                 inkscape:connector-curvature="0" /><path
                 d="m 8198.0151,8188.2255 c 0.1611,0 0.3212,0 0.4833,0 0,0.08 0,0.1601 0,0.2407 -0.1621,0 -0.3222,0 -0.4833,0 0,-0.081 0,-0.1611 0,-0.2407 z"
                 style="fill:#f05627;fill-opacity:1;fill-rule:nonzero;stroke:none"
                 id="path34014"
                 inkscape:connector-curvature="0" /><path
                 d="m 8198.0151,8188.4662 c 0.1611,0 0.3212,0 0.4833,0 0,0.081 0,0.1611 0,0.2416 -0.1621,0 -0.3222,0 -0.4833,0 0,-0.081 0,-0.1611 0,-0.2416 z"
                 style="fill:#f06824;fill-opacity:1;fill-rule:nonzero;stroke:none"
                 id="path34016"
                 inkscape:connector-curvature="0" /><path
                 d="m 8198.4984,8188.2255 c 0.1611,0 0.3222,0 0.4833,0 0,0.1592 0,0.3212 0,0.4823 -0.1611,0 -0.3222,0 -0.4833,0 0,-0.1611 0,-0.3231 0,-0.4823 z"
                 style="fill:#f05026;fill-opacity:1;fill-rule:nonzero;stroke:none"
                 id="path34018"
                 inkscape:connector-curvature="0" /><path
                 d="m 8198.9817,8188.2255 c 0.162,0 0.3231,0 0.4832,0 0,0.1592 0,0.3212 0,0.4823 -0.1601,0 -0.3212,0 -0.4832,0 0,-0.1611 0,-0.3231 0,-0.4823 z"
                 style="fill:#ef4728;fill-opacity:1;fill-rule:nonzero;stroke:none"
                 id="path34020"
                 inkscape:connector-curvature="0" /><path
                 d="m 8199.4649,8188.2255 c 0.1621,0 0.3232,0 0.4843,0 0,0.1592 0,0.3212 0,0.4823 -0.1611,0 -0.3222,0 -0.4843,0 0,-0.1611 0,-0.3231 0,-0.4823 z"
                 style="fill:#ef3f2b;fill-opacity:1;fill-rule:nonzero;stroke:none"
                 id="path34022"
                 inkscape:connector-curvature="0" /><path
                 d="m 8199.9492,8188.2255 c 0.1611,0 0.3231,0 0.4842,0 0,0.1592 0,0.3212 0,0.4823 -0.1611,0 -0.3231,0 -0.4842,0 0,-0.1611 0,-0.3231 0,-0.4823 z"
                 style="fill:#ee3333;fill-opacity:1;fill-rule:nonzero;stroke:none"
                 id="path34024"
                 inkscape:connector-curvature="0" /><path
                 d="m 8200.4334,8188.2255 c 0,0.1592 0,0.3212 0,0.4823 0.08,0 0.1611,0 0.2412,0 0,-0.1611 0,-0.3231 0,-0.4823 -0.08,0 -0.1611,0 -0.2412,0 z"
                 style="fill:#e81f3f;fill-opacity:1;fill-rule:nonzero;stroke:none"
                 id="path34026"
                 inkscape:connector-curvature="0" /><path
                 d="m 8200.6746,8188.2255 c 0,0.1592 0,0.3212 0,0.4823 0.081,0 0.1621,0 0.2421,0 0,-0.1611 0,-0.3231 0,-0.4823 -0.08,0 -0.1611,0 -0.2421,0 z"
                 style="fill:#e51846;fill-opacity:1;fill-rule:nonzero;stroke:none"
                 id="path34028"
                 inkscape:connector-curvature="0" /><path
                 d="m 8200.9167,8188.2255 c 0.1611,0 0.3222,0 0.4833,0 0,0.1592 0,0.3212 0,0.4823 -0.1611,0 -0.3222,0 -0.4833,0 0,-0.1611 0,-0.3231 0,-0.4823 z"
                 style="fill:#e2134d;fill-opacity:1;fill-rule:nonzero;stroke:none"
                 id="path34030"
                 inkscape:connector-curvature="0" /><path
                 d="m 8196.5633,8188.7078 c 0.1601,0 0.3222,0 0.4833,0 0,0.1611 0,0.3232 0,0.4843 -0.1611,0 -0.3232,0 -0.4833,0 0,-0.1611 0,-0.3232 0,-0.4843 z"
                 style="fill:#ea5623;fill-opacity:1;fill-rule:nonzero;stroke:none"
                 id="path34032"
                 inkscape:connector-curvature="0" /><path
                 d="m 8197.0466,8188.7078 c 0.1611,0 0.3222,0 0.4842,0 0,0.1611 0,0.3232 0,0.4843 -0.162,0 -0.3231,0 -0.4842,0 0,-0.1611 0,-0.3232 0,-0.4843 z"
                 style="fill:#f06a25;fill-opacity:1;fill-rule:nonzero;stroke:none"
                 id="path34034"
                 inkscape:connector-curvature="0" /><path
                 d="m 8197.5308,8188.7078 c 0.1611,0 0.3232,0 0.4843,0 0,0.1611 0,0.3232 0,0.4843 -0.1611,0 -0.3232,0 -0.4843,0 0,-0.1611 0,-0.3232 0,-0.4843 z"
                 style="fill:#f27a25;fill-opacity:1;fill-rule:nonzero;stroke:none"
                 id="path34036"
                 inkscape:connector-curvature="0" /><path
                 d="m 8198.0151,8188.7078 c 0,0.1611 0,0.3232 0,0.4843 0.08,0 0.1601,0 0.2411,0 0,-0.1611 0,-0.3232 0,-0.4843 -0.081,0 -0.161,0 -0.2411,0 z"
                 style="fill:#f27d25;fill-opacity:1;fill-rule:nonzero;stroke:none"
                 id="path34038"
                 inkscape:connector-curvature="0" /><path
                 d="m 8198.2562,8188.7078 c 0,0.1611 0,0.3232 0,0.4843 0.081,0 0.1611,0 0.2422,0 0,-0.1611 0,-0.3232 0,-0.4843 -0.081,0 -0.1611,0 -0.2422,0 z"
                 style="fill:#f17924;fill-opacity:1;fill-rule:nonzero;stroke:none"
                 id="path34040"
                 inkscape:connector-curvature="0" /><path
                 d="m 8198.4984,8188.7078 c 0.1611,0 0.3222,0 0.4833,0 0,0.1611 0,0.3232 0,0.4843 -0.1611,0 -0.3222,0 -0.4833,0 0,-0.1611 0,-0.3232 0,-0.4843 z"
                 style="fill:#f27225;fill-opacity:1;fill-rule:nonzero;stroke:none"
                 id="path34042"
                 inkscape:connector-curvature="0" /><path
                 d="m 8198.9817,8188.7078 c 0.162,0 0.3231,0 0.4832,0 0,0.1611 0,0.3232 0,0.4843 -0.1601,0 -0.3212,0 -0.4832,0 0,-0.1611 0,-0.3232 0,-0.4843 z"
                 style="fill:#f15d27;fill-opacity:1;fill-rule:nonzero;stroke:none"
                 id="path34044"
                 inkscape:connector-curvature="0" /><path
                 d="m 8199.4649,8188.7078 c 0.1621,0 0.3232,0 0.4843,0 0,0.1611 0,0.3232 0,0.4843 -0.1611,0 -0.3222,0 -0.4843,0 0,-0.1611 0,-0.3232 0,-0.4843 z"
                 style="fill:#ef4a26;fill-opacity:1;fill-rule:nonzero;stroke:none"
                 id="path34046"
                 inkscape:connector-curvature="0" /><path
                 d="m 8199.9492,8188.7078 c 0.1611,0 0.3231,0 0.4842,0 0,0.1611 0,0.3232 0,0.4843 -0.1611,0 -0.3231,0 -0.4842,0 0,-0.1611 0,-0.3232 0,-0.4843 z"
                 style="fill:#ef3e2b;fill-opacity:1;fill-rule:nonzero;stroke:none"
                 id="path34048"
                 inkscape:connector-curvature="0" /><path
                 d="m 8200.4334,8188.7078 c 0.1602,0 0.3222,0 0.4833,0 0,0.1611 0,0.3232 0,0.4843 -0.1611,0 -0.3231,0 -0.4833,0 0,-0.1611 0,-0.3232 0,-0.4843 z"
                 style="fill:#ec2c35;fill-opacity:1;fill-rule:nonzero;stroke:none"
                 id="path34050"
                 inkscape:connector-curvature="0" /><path
                 d="m 8200.9167,8188.7078 c 0.1611,0 0.3222,0 0.4833,0 0,0.1611 0,0.3232 0,0.4843 -0.1611,0 -0.3222,0 -0.4833,0 0,-0.1611 0,-0.3232 0,-0.4843 z"
                 style="fill:#e71942;fill-opacity:1;fill-rule:nonzero;stroke:none"
                 id="path34052"
                 inkscape:connector-curvature="0" /><path
                 d="m 8196.5633,8189.1921 c 0.1601,0 0.3222,0 0.4833,0 0,0.1621 0,0.3222 0,0.4833 -0.1611,0 -0.3232,0 -0.4833,0 0,-0.1611 0,-0.3212 0,-0.4833 z"
                 style="fill:#eb7624;fill-opacity:1;fill-rule:nonzero;stroke:none"
                 id="path34054"
                 inkscape:connector-curvature="0" /><path
                 d="m 8197.0466,8189.1921 c 0.1611,0 0.3222,0 0.4842,0 0,0.1621 0,0.3222 0,0.4833 -0.162,0 -0.3221,0 -0.4842,0 0,-0.1611 0,-0.3212 0,-0.4833 z"
                 style="fill:#f39529;fill-opacity:1;fill-rule:nonzero;stroke:none"
                 id="path34056"
                 inkscape:connector-curvature="0" /><path
                 d="m 8197.5308,8189.1921 c 0.1611,0 0.3232,0 0.4843,0 0,0.1621 0,0.3222 0,0.4833 -0.1611,0 -0.3232,0 -0.4843,0 0,-0.1611 0,-0.3212 0,-0.4833 z"
                 style="fill:#f3a42e;fill-opacity:1;fill-rule:nonzero;stroke:none"
                 id="path34058"
                 inkscape:connector-curvature="0" /><path
                 d="m 8198.0151,8189.1921 c 0,0.1621 0,0.3222 0,0.4833 0.08,0 0.1601,0 0.2411,0 0,-0.1611 0,-0.3212 0,-0.4833 -0.081,0 -0.161,0 -0.2411,0 z"
                 style="fill:#f3a72d;fill-opacity:1;fill-rule:nonzero;stroke:none"
                 id="path34060"
                 inkscape:connector-curvature="0" /><path
                 d="m 8198.2562,8189.1921 c 0,0.1621 0,0.3222 0,0.4833 0.081,0 0.1611,0 0.2422,0 0,-0.1611 0,-0.3212 0,-0.4833 -0.081,0 -0.1611,0 -0.2422,0 z"
                 style="fill:#f3a42c;fill-opacity:1;fill-rule:nonzero;stroke:none"
                 id="path34062"
                 inkscape:connector-curvature="0" /><path
                 d="m 8198.4984,8189.1921 c 0.1611,0 0.3222,0 0.4833,0 0,0.1621 0,0.3222 0,0.4833 -0.1611,0 -0.3222,0 -0.4833,0 0,-0.1611 0,-0.3212 0,-0.4833 z"
                 style="fill:#f39d29;fill-opacity:1;fill-rule:nonzero;stroke:none"
                 id="path34064"
                 inkscape:connector-curvature="0" /><path
                 d="m 8198.9817,8189.1921 c 0.162,0 0.3231,0 0.4832,0 0,0.1621 0,0.3222 0,0.4833 -0.1601,0 -0.3212,0 -0.4832,0 0,-0.1611 0,-0.3212 0,-0.4833 z"
                 style="fill:#f38127;fill-opacity:1;fill-rule:nonzero;stroke:none"
                 id="path34066"
                 inkscape:connector-curvature="0" /><path
                 d="m 8199.4649,8189.1921 c 0.1621,0 0.3232,0 0.4843,0 0,0.1621 0,0.3222 0,0.4833 -0.1611,0 -0.3222,0 -0.4843,0 0,-0.1611 0,-0.3212 0,-0.4833 z"
                 style="fill:#f25d27;fill-opacity:1;fill-rule:nonzero;stroke:none"
                 id="path34068"
                 inkscape:connector-curvature="0" /><path
                 d="m 8199.9492,8189.1921 c 0,0.1621 0,0.3222 0,0.4833 0.081,0 0.1611,0 0.2421,0 0,-0.1611 0,-0.3212 0,-0.4833 -0.081,0 -0.1611,0 -0.2421,0 z"
                 style="fill:#f04628;fill-opacity:1;fill-rule:nonzero;stroke:none"
                 id="path34070"
                 inkscape:connector-curvature="0" /><path
                 d="m 8200.1913,8189.1921 c 0,0.1621 0,0.3222 0,0.4833 0.081,0 0.1611,0 0.2421,0 0,-0.1611 0,-0.3212 0,-0.4833 -0.081,0 -0.1611,0 -0.2421,0 z"
                 style="fill:#ef402a;fill-opacity:1;fill-rule:nonzero;stroke:none"
                 id="path34072"
                 inkscape:connector-curvature="0" /><path
                 d="m 8200.4334,8189.1921 c 0.1602,0 0.3222,0 0.4833,0 0,0.1621 0,0.3222 0,0.4833 -0.1611,0 -0.3231,0 -0.4833,0 0,-0.1611 0,-0.3212 0,-0.4833 z"
                 style="fill:#ef3730;fill-opacity:1;fill-rule:nonzero;stroke:none"
                 id="path34074"
                 inkscape:connector-curvature="0" /><path
                 d="m 8200.9167,8189.1921 c 0.1611,0 0.3222,0 0.4833,0 0,0.1621 0,0.3222 0,0.4833 -0.1611,0 -0.3222,0 -0.4833,0 0,-0.1611 0,-0.3212 0,-0.4833 z"
                 style="fill:#ea213a;fill-opacity:1;fill-rule:nonzero;stroke:none"
                 id="path34076"
                 inkscape:connector-curvature="0" /><path
                 d="m 8196.5633,8189.6754 c 0.1601,0 0.3222,0 0.4833,0 0,0.162 0,0.3241 0,0.4832 -0.1611,0 -0.3232,0 -0.4833,0 0,-0.1591 0,-0.3212 0,-0.4832 z"
                 style="fill:#ec9829;fill-opacity:1;fill-rule:nonzero;stroke:none"
                 id="path34078"
                 inkscape:connector-curvature="0" /><path
                 d="m 8197.0466,8189.6754 c 0,0.162 0,0.3241 0,0.4832 0.08,0 0.1611,0 0.2421,0 0,-0.1591 0,-0.3212 0,-0.4832 -0.08,0 -0.1611,0 -0.2421,0 z"
                 style="fill:#f3b433;fill-opacity:1;fill-rule:nonzero;stroke:none"
                 id="path34080"
                 inkscape:connector-curvature="0" /><path
                 d="m 8197.2887,8189.6754 c 0,0.162 0,0.3241 0,0.4832 0.08,0 0.1611,0 0.2421,0 0,-0.1591 0,-0.3212 0,-0.4832 -0.081,0 -0.162,0 -0.2421,0 z"
                 style="fill:#f4bc3a;fill-opacity:1;fill-rule:nonzero;stroke:none"
                 id="path34082"
                 inkscape:connector-curvature="0" /><path
                 d="m 8197.5308,8189.6754 c 0.1611,0 0.3232,0 0.4843,0 0,0.162 0,0.3241 0,0.4832 -0.1611,0 -0.3232,0 -0.4843,0 0,-0.1591 0,-0.3212 0,-0.4832 z"
                 style="fill:#f4c03f;fill-opacity:1;fill-rule:nonzero;stroke:none"
                 id="path34084"
                 inkscape:connector-curvature="0" /><path
                 d="m 8198.0151,8189.6754 c 0,0.162 0,0.3241 0,0.4832 0.08,0 0.1601,0 0.2411,0 0,-0.1591 0,-0.3212 0,-0.4832 -0.081,0 -0.161,0 -0.2411,0 z"
                 style="fill:#f4c342;fill-opacity:1;fill-rule:nonzero;stroke:none"
                 id="path34086"
                 inkscape:connector-curvature="0" /><path
                 d="m 8198.2562,8189.6754 c 0,0.162 0,0.3241 0,0.4832 0.081,0 0.1611,0 0.2422,0 0,-0.1591 0,-0.3212 0,-0.4832 -0.081,0 -0.1611,0 -0.2422,0 z"
                 style="fill:#f4c03e;fill-opacity:1;fill-rule:nonzero;stroke:none"
                 id="path34088"
                 inkscape:connector-curvature="0" /><path
                 d="m 8198.4984,8189.6754 c 0.1611,0 0.3222,0 0.4833,0 0,0.162 0,0.3241 0,0.4832 -0.1611,0 -0.3222,0 -0.4833,0 0,-0.1591 0,-0.3212 0,-0.4832 z"
                 style="fill:#f3ba39;fill-opacity:1;fill-rule:nonzero;stroke:none"
                 id="path34090"
                 inkscape:connector-curvature="0" /><path
                 d="m 8198.9817,8189.6754 c 0.162,0 0.3231,0 0.4832,0 0,0.162 0,0.3241 0,0.4832 -0.1601,0 -0.3212,0 -0.4832,0 0,-0.1591 0,-0.3212 0,-0.4832 z"
                 style="fill:#f3a42d;fill-opacity:1;fill-rule:nonzero;stroke:none"
                 id="path34092"
                 inkscape:connector-curvature="0" /><path
                 d="m 8199.4649,8189.6754 c 0,0.162 0,0.3241 0,0.4832 0.081,0 0.1621,0 0.2431,0 0,-0.1591 0,-0.3212 0,-0.4832 -0.081,0 -0.162,0 -0.2431,0 z"
                 style="fill:#f27a24;fill-opacity:1;fill-rule:nonzero;stroke:none"
                 id="path34094"
                 inkscape:connector-curvature="0" /><path
                 d="m 8199.708,8189.6754 c 0,0.162 0,0.3241 0,0.4832 0.08,0 0.1602,0 0.2412,0 0,-0.1591 0,-0.3212 0,-0.4832 -0.081,0 -0.1611,0 -0.2412,0 z"
                 style="fill:#f16424;fill-opacity:1;fill-rule:nonzero;stroke:none"
                 id="path34096"
                 inkscape:connector-curvature="0" /><path
                 d="m 8199.9492,8189.6754 c 0,0.162 0,0.3241 0,0.4832 0.081,0 0.1611,0 0.2421,0 0,-0.1591 0,-0.3212 0,-0.4832 -0.081,0 -0.1611,0 -0.2421,0 z"
                 style="fill:#f05126;fill-opacity:1;fill-rule:nonzero;stroke:none"
                 id="path34098"
                 inkscape:connector-curvature="0" /><path
                 d="m 8200.1913,8189.6754 c 0,0.162 0,0.3241 0,0.4832 0.081,0 0.1611,0 0.2421,0 0,-0.1591 0,-0.3212 0,-0.4832 -0.081,0 -0.1611,0 -0.2421,0 z"
                 style="fill:#f04728;fill-opacity:1;fill-rule:nonzero;stroke:none"
                 id="path34100"
                 inkscape:connector-curvature="0" /><path
                 d="m 8200.4334,8189.6754 c 0.1602,0 0.3222,0 0.4833,0 0,0.162 0,0.3241 0,0.4832 -0.1611,0 -0.3231,0 -0.4833,0 0,-0.1591 0,-0.3212 0,-0.4832 z"
                 style="fill:#ef3f2a;fill-opacity:1;fill-rule:nonzero;stroke:none"
                 id="path34102"
                 inkscape:connector-curvature="0" /><path
                 d="m 8200.9167,8189.6754 c 0,0.162 0,0.3241 0,0.4832 0.08,0 0.1611,0 0.2421,0 0,-0.1591 0,-0.3212 0,-0.4832 -0.081,0 -0.162,0 -0.2421,0 z"
                 style="fill:#ec2b35;fill-opacity:1;fill-rule:nonzero;stroke:none"
                 id="path34104"
                 inkscape:connector-curvature="0" /><path
                 d="m 8201.1588,8189.6754 c 0,0.162 0,0.3241 0,0.4832 0.08,0 0.1602,0 0.2412,0 0,-0.1591 0,-0.3212 0,-0.4832 -0.081,0 -0.1611,0 -0.2412,0 z"
                 style="fill:#e72139;fill-opacity:1;fill-rule:nonzero;stroke:none"
                 id="path34106"
                 inkscape:connector-curvature="0" /></g></g></g></g></g><path
       d="m 20.857,15.523 c -0.002,-0.105 -0.029,-0.135 -0.134,-0.135 -0.247,0 -0.494,0 -0.742,0 -0.245,0 -0.492,0 -0.739,0 -0.103,0 -0.133,0.03 -0.133,0.135 0,0.273 10e-4,0.55 -0.004,0.826 0,0.077 0.022,0.095 0.094,0.092 0.104,-0.007 0.106,-0.003 0.094,-0.104 -0.04,-0.35 0.202,-0.69 0.547,-0.757 0.355,-0.068 0.711,0.146 0.808,0.485 0.03,0.107 0.039,0.22 0.016,0.326 -0.008,0.04 0.002,0.047 0.037,0.047 0.156,0.011 0.156,0.014 0.156,-0.147 0,-0.254 0,-0.512 0,-0.768 z m -0.873,1.178 c 0.237,0 0.44,-0.203 0.436,-0.438 -0.002,-0.242 -0.203,-0.443 -0.443,-0.438 -0.239,0.005 -0.44,0.206 -0.434,0.443 0.006,0.237 0.205,0.433 0.441,0.433 z m 0.649,0.437 c 0.224,0 0.224,0 0.224,-0.225 0,-0.22 0,-0.22 -0.22,-0.22 -0.223,0 -0.223,0 -0.223,0.223 0,0.222 0,0.222 0.219,0.222 z m 0.183,0.256 c -0.554,0 -1.111,0 -1.666,0 -0.198,0 -0.3,-0.105 -0.3,-0.303 0,-0.275 0,-0.55 0,-0.828 0,-0.276 0,-0.557 0,-0.835 0,-0.192 0.105,-0.297 0.291,-0.297 0.56,0 1.117,0 1.675,0 0.194,0 0.3,0.105 0.3,0.3 0,0.556 0,1.11 0,1.666 0,0.192 -0.106,0.297 -0.3,0.297"
       style="fill:#fefefe;fill-opacity:1;fill-rule:evenodd;stroke:none"
       id="path34108"
       inkscape:connector-curvature="0" /><path
       d="M 7.113,5.334 C 7.113,4.236 6.27,3.334 5.199,3.248 5.14,3.237 5.08,3.237 5.021,3.237 4.864,3.237 4.712,3.253 4.567,3.285 3.626,3.497 2.923,4.335 2.923,5.334 c 0,1.157 0.941,2.093 2.098,2.093 1.157,0 2.092,-0.936 2.092,-2.093"
       style="fill:#424652;fill-opacity:1;fill-rule:nonzero;stroke:none"
       id="path34110"
       inkscape:connector-curvature="0" /><path
       d="m 5.259,5.772 c 0.032,0.038 0.097,0.066 0.189,0.066 0.086,0 0.189,-0.012 0.286,-0.039 L 5.816,6.238 C 5.648,6.297 5.476,6.314 5.297,6.314 5.118,6.314 4.978,6.286 4.864,6.222 4.75,6.157 4.675,6.086 4.632,5.982 4.588,5.892 4.567,5.734 4.567,5.54 V 5.367 H 4.22 V 4.864 H 4.567 V 3.285 C 4.712,3.253 4.864,3.237 5.021,3.237 c 0.059,0 0.119,0 0.178,0.011 v 1.616 h 0.46 v 0.503 h -0.46 v 0.162 c 0,0.124 0.017,0.201 0.06,0.243"
       style="fill:#ffffff;fill-opacity:1;fill-rule:nonzero;stroke:none"
       id="path34112"
       inkscape:connector-curvature="0" /><path
       d="m 12.08,5.336 c 0,-1.158 -0.939,-2.096 -2.096,-2.096 -1.157,0 -2.095,0.938 -2.095,2.096 0,1.157 0.938,2.096 2.095,2.096 1.157,0 2.096,-0.939 2.096,-2.096"
       style="fill:#424652;fill-opacity:1;fill-rule:nonzero;stroke:none"
       id="path34114"
       inkscape:connector-curvature="0" /><path
       d="M 10.163,4.302 C 10.102,4.29 10.045,4.285 10.016,4.289 9.791,4.289 9.61,4.339 9.441,4.437 9.417,4.451 9.399,4.455 9.376,4.447 9.261,4.419 9.149,4.388 9.035,4.358 9.011,4.352 9.009,4.355 9.014,4.38 9.044,4.484 9.073,4.592 9.106,4.701 9.113,4.73 9.111,4.753 9.093,4.777 8.862,5.152 8.872,5.616 9.13,5.964 c 0.269,0.359 0.639,0.509 1.078,0.415 0.433,-0.091 0.71,-0.373 0.809,-0.804 0.14,-0.59 -0.258,-1.177 -0.854,-1.273 z m 1.064,1.334 C 11.088,6.216 10.587,6.611 9.984,6.62 9.904,6.616 9.818,6.61 9.74,6.595 8.894,6.426 8.458,5.491 8.868,4.738 8.882,4.717 8.882,4.698 8.879,4.675 8.82,4.481 8.765,4.28 8.712,4.083 8.704,4.049 8.704,4.049 8.736,4.058 8.943,4.114 9.147,4.166 9.354,4.218 9.372,4.223 9.384,4.223 9.399,4.215 9.664,4.08 9.943,4.043 10.236,4.097 c 0.699,0.135 1.158,0.847 0.991,1.539"
       style="fill:#ffffff;fill-opacity:1;fill-rule:evenodd;stroke:none"
       id="path34116"
       inkscape:connector-curvature="0" /><path
       d="M 10.317,4.738 C 10.273,4.734 10.228,4.742 10.185,4.756 9.894,4.841 9.673,5.02 9.496,5.263 9.43,5.353 9.367,5.449 9.348,5.563 9.321,5.694 9.362,5.813 9.462,5.903 9.496,5.935 9.593,5.949 9.632,5.929 9.645,5.918 9.652,5.907 9.661,5.895 9.697,5.804 9.735,5.72 9.772,5.634 9.777,5.616 9.776,5.598 9.767,5.58 9.747,5.54 9.717,5.508 9.688,5.475 9.664,5.454 9.664,5.43 9.681,5.404 9.785,5.23 9.926,5.105 10.116,5.031 10.143,5.02 10.164,5.024 10.181,5.046 10.214,5.084 10.246,5.125 10.276,5.165 10.295,5.19 10.32,5.194 10.347,5.183 10.41,5.154 10.471,5.125 10.531,5.098 10.547,5.089 10.559,5.083 10.574,5.078 10.637,5.046 10.637,5.042 10.629,4.975 10.621,4.841 10.519,4.773 10.402,4.741 10.371,4.734 10.345,4.734 10.317,4.738"
       style="fill:#ffffff;fill-opacity:1;fill-rule:evenodd;stroke:none"
       id="path34118"
       inkscape:connector-curvature="0" /><path
       d="m 17.012,5.308 c 0,-1.157 -0.939,-2.095 -2.095,-2.095 -1.158,0 -2.096,0.938 -2.096,2.095 0,1.159 0.938,2.096 2.096,2.096 1.156,0 2.095,-0.937 2.095,-2.096"
       style="fill:#424652;fill-opacity:1;fill-rule:nonzero;stroke:none"
       id="path34120"
       inkscape:connector-curvature="0" /><path
       d="m 13.648,4.455 c 0.2,-0.013 0.393,0.018 0.575,0.1 0.082,0.035 0.156,0.079 0.23,0.137 -0.087,0.003 -0.166,0.023 -0.238,0.06 -0.123,0.062 -0.21,0.161 -0.263,0.293 -0.012,0.029 -0.012,0.029 0.021,0.027 0.088,-0.007 0.152,-0.006 0.202,0.014 -0.048,0.017 -0.093,0.025 -0.13,0.051 -0.184,0.1 -0.281,0.259 -0.298,0.468 -0.002,0.025 0.005,0.028 0.027,0.017 0.065,-0.035 0.135,-0.052 0.216,-0.059 -0.035,0.032 -0.065,0.057 -0.092,0.085 -0.153,0.164 -0.189,0.424 -0.087,0.624 0.013,0.026 0.018,0.026 0.037,0.005 0.256,-0.296 0.576,-0.475 0.961,-0.536 0.039,-0.008 0.082,-0.009 0.122,-0.015 0.027,-0.005 0.03,0.007 0.026,0.029 -0.04,0.231 0.068,0.46 0.274,0.576 0.208,0.122 0.48,0.083 0.648,-0.081 0.019,-0.017 0.038,-0.021 0.06,-0.015 0.104,0.023 0.201,0.062 0.291,0.114 0.008,0.002 0.014,0.006 0.024,0.014 C 16.215,6.233 16.137,6.138 16.021,6.06 16.128,6.07 16.224,6.101 16.318,6.138 16.32,6.124 16.31,6.116 16.305,6.106 16.24,6.018 16.165,5.939 16.076,5.872 16.06,5.858 16.056,5.849 16.056,5.827 16.063,5.424 15.934,5.065 15.676,4.752 15.434,4.467 15.124,4.296 14.756,4.235 14.365,4.175 13.998,4.241 13.66,4.449 13.656,4.452 13.651,4.455 13.648,4.455"
       style="fill:#ffffff;fill-opacity:1;fill-rule:evenodd;stroke:none"
       id="path34122"
       inkscape:connector-curvature="0" /><path
       d="m 22.078,5.32 c 0,-1.157 -0.937,-2.095 -2.096,-2.095 -1.156,0 -2.094,0.938 -2.094,2.095 0,1.158 0.938,2.097 2.094,2.097 1.159,0 2.096,-0.939 2.096,-2.097"
       style="fill:#424652;fill-opacity:1;fill-rule:nonzero;stroke:none"
       id="path34124"
       inkscape:connector-curvature="0" /><path
       d="M 20.857,4.582 C 20.855,4.477 20.828,4.446 20.723,4.446 c -0.247,0 -0.494,0 -0.742,0 -0.245,0 -0.492,0 -0.739,0 -0.103,0 -0.133,0.031 -0.133,0.136 0,0.272 10e-4,0.549 -0.004,0.824 0,0.078 0.022,0.096 0.094,0.093 0.104,-0.007 0.106,-0.003 0.094,-0.103 -0.04,-0.351 0.202,-0.69 0.547,-0.757 0.355,-0.069 0.711,0.144 0.808,0.485 0.03,0.106 0.039,0.22 0.016,0.325 -0.008,0.039 0.002,0.047 0.037,0.047 0.156,0.012 0.156,0.015 0.156,-0.147 0,-0.253 0,-0.511 0,-0.767 z M 19.984,5.76 c 0.237,0 0.44,-0.204 0.436,-0.44 -0.002,-0.241 -0.203,-0.441 -0.443,-0.437 -0.239,0.006 -0.44,0.206 -0.434,0.443 0.006,0.238 0.205,0.434 0.441,0.434 z m 0.649,0.436 c 0.224,0 0.224,0 0.224,-0.224 0,-0.22 0,-0.22 -0.22,-0.22 -0.223,0 -0.223,0 -0.223,0.223 0,0.221 0,0.221 0.219,0.221 z m 0.183,0.255 c -0.554,0 -1.111,0 -1.666,0 -0.198,0 -0.3,-0.103 -0.3,-0.303 0,-0.274 0,-0.549 0,-0.828 0,-0.275 0,-0.555 0,-0.834 0,-0.191 0.105,-0.296 0.291,-0.296 0.56,0 1.117,0 1.675,0 0.194,0 0.3,0.105 0.3,0.299 0,0.556 0,1.11 0,1.666 0,0.193 -0.106,0.296 -0.3,0.296"
       style="fill:#ffffff;fill-opacity:1;fill-rule:evenodd;stroke:none"
       id="path34126"
       inkscape:connector-curvature="0" /><path
       d="m 5.021,13.006 c -1.216,0 -2.206,-0.988 -2.206,-2.201 0,-1.022 0.727,-1.928 1.728,-2.154 0.151,-0.033 0.312,-0.049 0.478,-0.049 0.065,0 0.132,0 0.197,0.009 1.118,0.091 2.003,1.054 2.003,2.194 0,1.213 -0.987,2.201 -2.2,2.201 z m 0,-0.108 c 1.157,0 2.092,-0.935 2.092,-2.093 C 7.113,9.707 6.27,8.806 5.199,8.719 5.14,8.708 5.08,8.708 5.021,8.708 c -0.157,0 -0.309,0.016 -0.454,0.049 -0.941,0.21 -1.644,1.049 -1.644,2.048 0,1.158 0.941,2.093 2.098,2.093"
       style="fill:#474b57;fill-opacity:1;fill-rule:nonzero;stroke:none"
       id="path34128"
       inkscape:connector-curvature="0" /><path
       d="m 5.259,11.244 c 0.032,0.038 0.097,0.066 0.189,0.066 0.086,0 0.189,-0.013 0.286,-0.041 l 0.082,0.44 c -0.168,0.059 -0.34,0.075 -0.519,0.075 -0.179,0 -0.319,-0.027 -0.433,-0.093 C 4.75,11.629 4.675,11.558 4.632,11.454 4.588,11.361 4.567,11.206 4.567,11.011 V 10.838 H 4.22 V 10.336 H 4.567 V 8.757 C 4.712,8.724 4.864,8.708 5.021,8.708 c 0.059,0 0.119,0 0.178,0.011 v 1.617 h 0.46 v 0.502 H 5.199 V 11 c 0,0.124 0.017,0.2 0.06,0.244"
       style="fill:#3e414d;fill-opacity:1;fill-rule:nonzero;stroke:none"
       id="path34130"
       inkscape:connector-curvature="0" /><path
       d="m 9.984,13.01 c -1.214,0 -2.203,-0.989 -2.203,-2.203 0,-1.215 0.989,-2.203 2.203,-2.203 1.215,0 2.204,0.988 2.204,2.203 0,1.214 -0.989,2.203 -2.204,2.203 z m 0,-0.108 c 1.157,0 2.096,-0.937 2.096,-2.095 0,-1.159 -0.939,-2.096 -2.096,-2.096 -1.157,0 -2.095,0.937 -2.095,2.096 0,1.158 0.938,2.095 2.095,2.095"
       style="fill:#474b57;fill-opacity:1;fill-rule:nonzero;stroke:none"
       id="path34132"
       inkscape:connector-curvature="0" /><path
       d="M 10.163,9.773 C 10.102,9.762 10.045,9.756 10.016,9.76 9.791,9.76 9.61,9.811 9.441,9.907 9.417,9.922 9.399,9.926 9.376,9.917 9.261,9.89 9.149,9.858 9.035,9.829 9.011,9.822 9.009,9.827 9.014,9.85 c 0.03,0.105 0.059,0.213 0.092,0.322 0.007,0.029 0.005,0.053 -0.013,0.075 -0.231,0.377 -0.221,0.839 0.037,1.189 0.269,0.359 0.639,0.508 1.078,0.414 0.433,-0.091 0.71,-0.373 0.809,-0.804 0.14,-0.591 -0.258,-1.177 -0.854,-1.273 z m 1.064,1.334 c -0.139,0.581 -0.64,0.976 -1.243,0.984 C 9.904,12.087 9.818,12.081 9.74,12.066 8.894,11.896 8.458,10.962 8.868,10.21 8.882,10.188 8.882,10.17 8.879,10.146 8.82,9.951 8.765,9.751 8.712,9.554 8.704,9.52 8.704,9.52 8.736,9.528 8.943,9.585 9.147,9.638 9.354,9.689 9.372,9.694 9.384,9.694 9.399,9.686 9.664,9.552 9.943,9.514 10.236,9.568 c 0.699,0.135 1.158,0.848 0.991,1.539"
       style="fill:#3e414d;fill-opacity:1;fill-rule:evenodd;stroke:none"
       id="path34134"
       inkscape:connector-curvature="0" /><path
       d="m 10.317,10.21 c -0.044,-0.005 -0.089,0.004 -0.132,0.017 -0.291,0.086 -0.512,0.264 -0.689,0.506 -0.066,0.09 -0.129,0.187 -0.148,0.301 -0.027,0.132 0.014,0.25 0.114,0.34 0.034,0.032 0.131,0.047 0.17,0.025 0.013,-0.01 0.02,-0.02 0.029,-0.033 0.036,-0.091 0.074,-0.175 0.111,-0.26 0.005,-0.02 0.004,-0.037 -0.005,-0.055 -0.02,-0.04 -0.05,-0.071 -0.079,-0.106 -0.024,-0.02 -0.024,-0.044 -0.007,-0.069 0.104,-0.175 0.245,-0.301 0.435,-0.374 0.027,-0.011 0.048,-0.007 0.065,0.015 0.033,0.038 0.065,0.08 0.095,0.12 0.019,0.024 0.044,0.029 0.071,0.016 0.063,-0.027 0.124,-0.056 0.184,-0.084 0.016,-0.008 0.028,-0.014 0.043,-0.021 0.063,-0.031 0.063,-0.035 0.055,-0.103 -0.008,-0.132 -0.11,-0.2 -0.227,-0.233 -0.031,-0.007 -0.057,-0.007 -0.085,-0.002"
       style="fill:#3e414d;fill-opacity:1;fill-rule:evenodd;stroke:none"
       id="path34136"
       inkscape:connector-curvature="0" /><path
       d="m 14.917,12.982 c -1.215,0 -2.204,-0.988 -2.204,-2.203 0,-1.214 0.989,-2.203 2.204,-2.203 1.214,0 2.202,0.989 2.202,2.203 0,1.215 -0.988,2.203 -2.202,2.203 z m 0,-0.107 c 1.156,0 2.095,-0.937 2.095,-2.096 0,-1.156 -0.939,-2.095 -2.095,-2.095 -1.158,0 -2.096,0.939 -2.096,2.095 0,1.159 0.938,2.096 2.096,2.096"
       style="fill:#474b57;fill-opacity:1;fill-rule:nonzero;stroke:none"
       id="path34138"
       inkscape:connector-curvature="0" /><path
       d="m 13.648,9.926 c 0.2,-0.013 0.393,0.016 0.575,0.098 0.082,0.037 0.156,0.08 0.23,0.139 -0.087,0.002 -0.166,0.024 -0.238,0.06 -0.123,0.062 -0.21,0.161 -0.263,0.294 -0.012,0.029 -0.012,0.029 0.021,0.027 0.088,-0.009 0.152,-0.007 0.202,0.013 -0.048,0.016 -0.093,0.025 -0.13,0.049 -0.184,0.102 -0.281,0.259 -0.298,0.47 -0.002,0.025 0.005,0.028 0.027,0.017 0.065,-0.036 0.135,-0.051 0.216,-0.059 -0.035,0.031 -0.065,0.057 -0.092,0.084 -0.153,0.164 -0.189,0.424 -0.087,0.624 0.013,0.028 0.018,0.028 0.037,0.006 0.256,-0.296 0.576,-0.475 0.961,-0.536 0.039,-0.008 0.082,-0.008 0.122,-0.017 0.027,-0.004 0.03,0.009 0.026,0.03 -0.04,0.231 0.068,0.461 0.274,0.576 0.208,0.122 0.48,0.084 0.648,-0.08 0.019,-0.017 0.038,-0.021 0.06,-0.015 0.104,0.024 0.201,0.062 0.291,0.114 0.008,0.002 0.014,0.006 0.024,0.015 -0.039,-0.131 -0.117,-0.228 -0.233,-0.305 0.107,0.01 0.203,0.042 0.297,0.077 0.002,-0.012 -0.008,-0.02 -0.013,-0.031 -0.065,-0.088 -0.14,-0.166 -0.229,-0.233 -0.016,-0.013 -0.02,-0.024 -0.02,-0.044 0.007,-0.405 -0.122,-0.764 -0.38,-1.076 C 15.434,9.939 15.124,9.766 14.756,9.707 14.365,9.647 13.998,9.711 13.66,9.92 13.656,9.924 13.651,9.926 13.648,9.926"
       style="fill:#3e414d;fill-opacity:1;fill-rule:evenodd;stroke:none"
       id="path34140"
       inkscape:connector-curvature="0" /><path
       d="m 19.982,12.995 c -1.214,0 -2.202,-0.988 -2.202,-2.203 0,-1.215 0.988,-2.203 2.202,-2.203 1.215,0 2.203,0.988 2.203,2.203 0,1.215 -0.988,2.203 -2.203,2.203 z m 0,-0.107 c 1.159,0 2.096,-0.94 2.096,-2.096 0,-1.158 -0.937,-2.096 -2.096,-2.096 -1.156,0 -2.094,0.938 -2.094,2.096 0,1.156 0.938,2.096 2.094,2.096"
       style="fill:#474b57;fill-opacity:1;fill-rule:nonzero;stroke:none"
       id="path34142"
       inkscape:connector-curvature="0" /><path
       d="M 20.857,10.052 C 20.855,9.946 20.828,9.917 20.723,9.917 c -0.247,0 -0.494,0 -0.742,0 -0.245,0 -0.492,0 -0.739,0 -0.103,0 -0.133,0.029 -0.133,0.135 0,0.273 10e-4,0.55 -0.004,0.826 0,0.078 0.022,0.095 0.094,0.093 0.104,-0.009 0.106,-0.004 0.094,-0.106 -0.04,-0.348 0.202,-0.689 0.547,-0.757 0.355,-0.067 0.711,0.146 0.808,0.487 0.03,0.106 0.039,0.22 0.016,0.325 -0.008,0.04 0.002,0.047 0.037,0.047 0.156,0.013 0.156,0.014 0.156,-0.148 0,-0.252 0,-0.51 0,-0.767 z m -0.873,1.179 c 0.237,0 0.44,-0.204 0.436,-0.439 -0.002,-0.242 -0.203,-0.441 -0.443,-0.438 -0.239,0.004 -0.44,0.207 -0.434,0.442 0.006,0.238 0.205,0.435 0.441,0.435 z m 0.649,0.435 c 0.224,0 0.224,0 0.224,-0.225 0,-0.218 0,-0.218 -0.22,-0.218 -0.223,0 -0.223,0 -0.223,0.222 0,0.221 0,0.221 0.219,0.221 z m 0.183,0.257 c -0.554,0 -1.111,0 -1.666,0 -0.198,0 -0.3,-0.106 -0.3,-0.303 0,-0.275 0,-0.551 0,-0.828 0,-0.275 0,-0.558 0,-0.835 0,-0.191 0.105,-0.296 0.291,-0.296 0.56,0 1.117,0 1.675,0 0.194,0 0.3,0.105 0.3,0.298 0,0.558 0,1.11 0,1.668 0,0.19 -0.106,0.296 -0.3,0.296"
       style="fill:#3e414d;fill-opacity:1;fill-rule:evenodd;stroke:none"
       id="path34144"
       inkscape:connector-curvature="0" /><path
       d="m 9.197,21.977 c 0,-0.072 -0.026,-0.128 -0.078,-0.167 -0.053,-0.041 -0.123,-0.061 -0.212,-0.061 -0.095,0 -0.171,0.013 -0.222,0.037 v 0.092 c 0.033,-0.015 0.07,-0.025 0.109,-0.034 0.039,-0.008 0.078,-0.013 0.117,-0.013 0.063,0 0.11,0.013 0.142,0.037 0.032,0.024 0.048,0.057 0.048,0.1 0,0.028 -0.006,0.051 -0.017,0.069 -0.012,0.019 -0.03,0.034 -0.057,0.05 -0.026,0.015 -0.066,0.032 -0.121,0.052 -0.075,0.026 -0.13,0.059 -0.162,0.096 -0.032,0.037 -0.049,0.085 -0.049,0.145 0,0.062 0.024,0.113 0.071,0.15 0.047,0.037 0.109,0.055 0.187,0.055 0.081,0 0.155,-0.014 0.223,-0.043 l -0.03,-0.084 c -0.067,0.029 -0.132,0.043 -0.195,0.043 -0.051,0 -0.09,-0.012 -0.118,-0.033 -0.028,-0.022 -0.042,-0.051 -0.042,-0.089 0,-0.027 0.005,-0.052 0.016,-0.069 0.01,-0.018 0.028,-0.035 0.052,-0.05 0.025,-0.015 0.063,-0.032 0.114,-0.05 0.085,-0.03 0.143,-0.063 0.175,-0.098 0.033,-0.034 0.049,-0.08 0.049,-0.135"
       style="fill:#959595;fill-opacity:1;fill-rule:nonzero;stroke:none"
       id="path34146"
       inkscape:connector-curvature="0" /><path
       d="m 9.421,22.169 c 0,-0.111 0.023,-0.194 0.07,-0.251 0.047,-0.058 0.115,-0.087 0.205,-0.087 0.09,0 0.158,0.029 0.203,0.086 0.047,0.058 0.07,0.141 0.07,0.252 0,0.108 -0.023,0.191 -0.069,0.248 -0.046,0.057 -0.113,0.086 -0.203,0.086 -0.091,0 -0.159,-0.029 -0.206,-0.087 -0.047,-0.057 -0.07,-0.139 -0.07,-0.247 z m 0.648,0 c 0,-0.131 -0.033,-0.233 -0.099,-0.308 -0.066,-0.075 -0.157,-0.112 -0.274,-0.112 -0.12,0 -0.213,0.037 -0.278,0.11 -0.064,0.074 -0.098,0.177 -0.098,0.31 0,0.133 0.034,0.236 0.099,0.309 0.064,0.073 0.158,0.109 0.278,0.109 0.116,0 0.208,-0.037 0.274,-0.111 0.065,-0.076 0.098,-0.177 0.098,-0.307"
       style="fill:#959595;fill-opacity:1;fill-rule:nonzero;stroke:none"
       id="path34148"
       inkscape:connector-curvature="0" /><path
       d="m 10.599,22.501 c -0.089,0 -0.16,-0.029 -0.212,-0.089 -0.052,-0.059 -0.077,-0.141 -0.077,-0.245 0,-0.106 0.024,-0.188 0.074,-0.247 0.051,-0.058 0.121,-0.087 0.214,-0.087 0.056,0 0.121,0.01 0.194,0.03 v -0.082 c -0.057,-0.021 -0.126,-0.032 -0.209,-0.032 -0.119,0 -0.212,0.037 -0.277,0.109 -0.065,0.073 -0.098,0.176 -0.098,0.311 0,0.082 0.016,0.156 0.047,0.219 0.031,0.064 0.077,0.112 0.136,0.146 0.059,0.033 0.128,0.051 0.209,0.051 0.085,0 0.16,-0.015 0.223,-0.047 l -0.04,-0.081 c -0.061,0.028 -0.123,0.044 -0.184,0.044"
       style="fill:#959595;fill-opacity:1;fill-rule:nonzero;stroke:none"
       id="path34150"
       inkscape:connector-curvature="0" /><path
       d="m 10.97,22.574 h 0.094 V 21.761 H 10.97 Z"
       style="fill:#959595;fill-opacity:1;fill-rule:nonzero;stroke:none"
       id="path34152"
       inkscape:connector-curvature="0" /><path
       d="m 11.668,22.104 -0.095,0.252 c -0.012,0.032 -0.025,0.071 -0.038,0.118 -0.008,-0.036 -0.019,-0.076 -0.035,-0.118 l -0.096,-0.252 z m 0.13,-0.343 -0.101,0.258 H 11.371 L 11.27,21.761 h -0.094 l 0.321,0.816 h 0.079 l 0.32,-0.816 h -0.098"
       style="fill:#959595;fill-opacity:1;fill-rule:nonzero;stroke:none"
       id="path34154"
       inkscape:connector-curvature="0" /><path
       d="m 12.008,21.761 v 0.813 h 0.094 v -0.727 h 0.36 v -0.086 h -0.454"
       style="fill:#959595;fill-opacity:1;fill-rule:nonzero;stroke:none"
       id="path34156"
       inkscape:connector-curvature="0" /><path
       d="m 13.256,21.761 -0.277,0.72 h -0.003 c 0.005,-0.056 0.007,-0.125 0.007,-0.204 v -0.516 h -0.087 v 0.813 h 0.142 l 0.257,-0.672 H 13.3 l 0.26,0.672 h 0.141 v -0.813 h -0.094 v 0.523 c 0,0.061 0.002,0.125 0.007,0.197 h -0.005 l -0.277,-0.72 h -0.076"
       style="fill:#959595;fill-opacity:1;fill-rule:nonzero;stroke:none"
       id="path34158"
       inkscape:connector-curvature="0" /><path
       d="m 14.377,21.761 h -0.453 v 0.813 h 0.453 v -0.085 h -0.359 v -0.261 h 0.338 v -0.084 h -0.338 v -0.299 h 0.359 v -0.084"
       style="fill:#959595;fill-opacity:1;fill-rule:nonzero;stroke:none"
       id="path34160"
       inkscape:connector-curvature="0" /><path
       d="m 15.106,22.171 c 0,0.106 -0.026,0.186 -0.08,0.24 -0.051,0.055 -0.13,0.081 -0.236,0.081 h -0.138 v -0.65 h 0.116 c 0.113,0 0.197,0.028 0.255,0.083 0.055,0.055 0.083,0.138 0.083,0.246 z m 0.101,0.004 c 0,-0.135 -0.037,-0.238 -0.108,-0.309 -0.075,-0.07 -0.179,-0.105 -0.316,-0.105 h -0.224 v 0.813 h 0.248 c 0.127,0 0.224,-0.036 0.296,-0.106 0.069,-0.07 0.104,-0.167 0.104,-0.293"
       style="fill:#959595;fill-opacity:1;fill-rule:nonzero;stroke:none"
       id="path34162"
       inkscape:connector-curvature="0" /><path
       d="m 15.388,22.574 h 0.095 v -0.813 h -0.095 z"
       style="fill:#959595;fill-opacity:1;fill-rule:nonzero;stroke:none"
       id="path34164"
       inkscape:connector-curvature="0" /><path
       d="m 16.086,22.104 -0.094,0.252 c -0.013,0.032 -0.025,0.071 -0.037,0.118 -0.009,-0.036 -0.02,-0.076 -0.035,-0.118 l -0.097,-0.252 z m 0.132,-0.343 -0.102,0.258 H 15.791 L 15.69,21.761 h -0.095 l 0.321,0.816 h 0.08 l 0.319,-0.816 h -0.097"
       style="fill:#959595;fill-opacity:1;fill-rule:nonzero;stroke:none"
       id="path34166"
       inkscape:connector-curvature="0" /><path
       d="m 9.363,21.009 c 0,-0.035 -0.012,-0.064 -0.039,-0.084 -0.025,-0.021 -0.059,-0.031 -0.102,-0.031 -0.052,0 -0.092,0.005 -0.119,0.017 v 0.03 c 0.03,-0.013 0.069,-0.019 0.116,-0.019 0.035,0 0.062,0.007 0.083,0.023 0.02,0.016 0.03,0.037 0.03,0.063 0,0.015 -0.003,0.028 -0.01,0.04 -0.007,0.01 -0.018,0.019 -0.033,0.027 -0.016,0.01 -0.038,0.02 -0.067,0.029 -0.043,0.014 -0.073,0.032 -0.09,0.049 -0.016,0.016 -0.025,0.039 -0.025,0.069 0,0.031 0.013,0.057 0.038,0.077 0.025,0.02 0.056,0.03 0.095,0.03 0.04,0 0.077,-0.008 0.113,-0.023 L 9.342,21.281 c -0.035,0.015 -0.07,0.022 -0.101,0.022 -0.031,0 -0.056,-0.007 -0.075,-0.022 -0.018,-0.014 -0.027,-0.034 -0.027,-0.059 0,-0.016 0.003,-0.028 0.008,-0.038 0.005,-0.011 0.015,-0.019 0.028,-0.027 0.013,-0.009 0.035,-0.017 0.066,-0.029 0.033,-0.012 0.059,-0.023 0.075,-0.033 0.016,-0.011 0.029,-0.024 0.037,-0.037 0.006,-0.013 0.01,-0.03 0.01,-0.049"
       style="fill:#959595;fill-opacity:1;fill-rule:nonzero;stroke:none"
       id="path34168"
       inkscape:connector-curvature="0" /><path
       d="m 9.861,20.899 h -0.23 v 0.423 h 0.23 V 21.296 H 9.66 v -0.16 H 9.851 V 21.108 H 9.66 v -0.181 h 0.201 v -0.028"
       style="fill:#959595;fill-opacity:1;fill-rule:nonzero;stroke:none"
       id="path34170"
       inkscape:connector-curvature="0" /><path
       d="m 10.245,20.899 h -0.029 v 0.395 h -0.138 v 0.028 h 0.305 v -0.028 h -0.138 v -0.395"
       style="fill:#959595;fill-opacity:1;fill-rule:nonzero;stroke:none"
       id="path34172"
       inkscape:connector-curvature="0" /><path
       d="m 11.136,21.302 c -0.054,0 -0.095,-0.017 -0.125,-0.051 -0.032,-0.033 -0.046,-0.08 -0.046,-0.139 0,-0.06 0.014,-0.107 0.043,-0.14 0.029,-0.034 0.07,-0.05 0.123,-0.05 0.036,0 0.068,0.004 0.098,0.013 v -0.027 c -0.028,-0.009 -0.063,-0.014 -0.105,-0.014 -0.06,0 -0.106,0.019 -0.141,0.058 -0.034,0.037 -0.05,0.092 -0.05,0.16 0,0.043 0.007,0.08 0.024,0.114 0.016,0.033 0.04,0.058 0.07,0.076 0.031,0.018 0.067,0.027 0.107,0.027 0.042,0 0.078,-0.008 0.111,-0.023 l -0.013,-0.027 c -0.03,0.015 -0.062,0.023 -0.096,0.023"
       style="fill:#959595;fill-opacity:1;fill-rule:nonzero;stroke:none"
       id="path34174"
       inkscape:connector-curvature="0" /><path
       d="m 11.51,21.112 c 0,-0.06 0.014,-0.107 0.041,-0.14 0.027,-0.034 0.065,-0.05 0.116,-0.05 0.051,0 0.09,0.016 0.117,0.05 0.026,0.032 0.04,0.08 0.04,0.14 0,0.061 -0.014,0.108 -0.04,0.141 -0.027,0.031 -0.066,0.048 -0.116,0.048 -0.051,0 -0.09,-0.017 -0.117,-0.05 -0.027,-0.033 -0.041,-0.078 -0.041,-0.139 z m 0.346,0 c 0,-0.067 -0.017,-0.121 -0.05,-0.16 -0.034,-0.039 -0.079,-0.058 -0.139,-0.058 -0.059,0 -0.105,0.019 -0.139,0.058 -0.033,0.039 -0.05,0.093 -0.05,0.16 0,0.068 0.017,0.121 0.051,0.16 0.035,0.038 0.08,0.057 0.139,0.057 0.059,0 0.105,-0.019 0.139,-0.058 0.032,-0.04 0.049,-0.091 0.049,-0.159"
       style="fill:#959595;fill-opacity:1;fill-rule:nonzero;stroke:none"
       id="path34176"
       inkscape:connector-curvature="0" /><path
       d="m 12.131,20.899 v 0.423 h 0.03 v -0.394 h 0.201 v -0.029 h -0.231"
       style="fill:#959595;fill-opacity:1;fill-rule:nonzero;stroke:none"
       id="path34178"
       inkscape:connector-curvature="0" /><path
       d="m 12.612,20.899 v 0.423 h 0.031 v -0.394 h 0.201 v -0.029 h -0.232"
       style="fill:#959595;fill-opacity:1;fill-rule:nonzero;stroke:none"
       id="path34180"
       inkscape:connector-curvature="0" /><path
       d="m 13.326,20.899 h -0.231 v 0.423 h 0.231 v -0.026 h -0.202 v -0.16 h 0.19 v -0.028 h -0.19 v -0.181 h 0.202 v -0.028"
       style="fill:#959595;fill-opacity:1;fill-rule:nonzero;stroke:none"
       id="path34182"
       inkscape:connector-curvature="0" /><path
       d="m 13.779,21.302 c -0.052,0 -0.093,-0.017 -0.125,-0.051 -0.03,-0.033 -0.045,-0.08 -0.045,-0.139 0,-0.06 0.015,-0.107 0.043,-0.14 0.029,-0.034 0.071,-0.05 0.123,-0.05 0.036,0 0.069,0.004 0.097,0.013 v -0.027 c -0.026,-0.009 -0.061,-0.014 -0.104,-0.014 -0.059,0 -0.105,0.019 -0.14,0.058 -0.034,0.037 -0.052,0.092 -0.052,0.16 0,0.043 0.009,0.08 0.025,0.114 0.016,0.033 0.04,0.058 0.07,0.076 0.03,0.018 0.066,0.027 0.106,0.027 0.041,0 0.079,-0.008 0.112,-0.023 l -0.013,-0.027 c -0.03,0.015 -0.062,0.023 -0.097,0.023"
       style="fill:#959595;fill-opacity:1;fill-rule:nonzero;stroke:none"
       id="path34184"
       inkscape:connector-curvature="0" /><path
       d="m 14.255,20.899 h -0.029 v 0.395 h -0.138 v 0.028 h 0.304 v -0.028 h -0.137 v -0.395"
       style="fill:#959595;fill-opacity:1;fill-rule:nonzero;stroke:none"
       id="path34186"
       inkscape:connector-curvature="0" /><path
       d="m 14.632,21.322 h 0.031 v -0.423 h -0.031 z"
       style="fill:#959595;fill-opacity:1;fill-rule:nonzero;stroke:none"
       id="path34188"
       inkscape:connector-curvature="0" /><path
       d="m 14.969,21.112 c 0,-0.06 0.014,-0.107 0.041,-0.14 0.027,-0.034 0.066,-0.05 0.116,-0.05 0.051,0 0.09,0.016 0.117,0.05 0.027,0.032 0.04,0.08 0.04,0.14 0,0.061 -0.013,0.108 -0.04,0.141 -0.027,0.031 -0.065,0.048 -0.116,0.048 -0.05,0 -0.089,-0.017 -0.117,-0.05 -0.027,-0.033 -0.041,-0.078 -0.041,-0.139 z m 0.347,0 c 0,-0.067 -0.017,-0.121 -0.051,-0.16 -0.034,-0.039 -0.08,-0.058 -0.139,-0.058 -0.059,0 -0.104,0.019 -0.139,0.058 -0.032,0.039 -0.049,0.093 -0.049,0.16 0,0.068 0.017,0.121 0.049,0.16 0.036,0.038 0.08,0.057 0.14,0.057 0.059,0 0.104,-0.019 0.138,-0.058 0.034,-0.04 0.051,-0.091 0.051,-0.159"
       style="fill:#959595;fill-opacity:1;fill-rule:nonzero;stroke:none"
       id="path34190"
       inkscape:connector-curvature="0" /><path
       d="m 15.897,20.899 h -0.028 l -0.251,0.375 h -0.003 c 0.003,-0.043 0.003,-0.078 0.003,-0.099 v -0.276 h -0.027 v 0.423 h 0.029 l 0.251,-0.374 h 10e-4 c -10e-4,0.034 -0.003,0.067 -0.003,0.099 v 0.275 h 0.028 v -0.423"
       style="fill:#959595;fill-opacity:1;fill-rule:nonzero;stroke:none"
       id="path34192"
       inkscape:connector-curvature="0" /></g></svg>