<?xml version="1.0" encoding="UTF-8" standalone="no"?>
<!-- Created with Inkscape (http://www.inkscape.org/) -->

<svg
   xmlns:dc="http://purl.org/dc/elements/1.1/"
   xmlns:cc="http://creativecommons.org/ns#"
   xmlns:rdf="http://www.w3.org/1999/02/22-rdf-syntax-ns#"
   xmlns:svg="http://www.w3.org/2000/svg"
   xmlns="http://www.w3.org/2000/svg"
   xmlns:sodipodi="http://sodipodi.sourceforge.net/DTD/sodipodi-0.dtd"
   xmlns:inkscape="http://www.inkscape.org/namespaces/inkscape"
   version="1.1"
   id="svg120962"
   xml:space="preserve"
   width="666.66669"
   height="566.66669"
   viewBox="0 0 666.66669 566.66669"
   sodipodi:docname="securtiyGuy.svg"
   inkscape:version="0.92.2 5c3e80d, 2017-08-06"><metadata
     id="metadata120968"><rdf:RDF><cc:Work
         rdf:about=""><dc:format>image/svg+xml</dc:format><dc:type
           rdf:resource="http://purl.org/dc/dcmitype/StillImage" /><dc:title></dc:title></cc:Work></rdf:RDF></metadata><defs
     id="defs120966"><clipPath
       clipPathUnits="userSpaceOnUse"
       id="clipPath120978"><path
         d="M 0.06,424.49 H 500 V 0.06 H 0.06 Z"
         id="path120976"
         inkscape:connector-curvature="0" /></clipPath><clipPath
       clipPathUnits="userSpaceOnUse"
       id="clipPath121254"><path
         d="M 0.06,424.49 H 500 V 0.06 H 0.06 Z"
         id="path121252"
         inkscape:connector-curvature="0" /></clipPath></defs><sodipodi:namedview
     pagecolor="#ffffff"
     bordercolor="#666666"
     borderopacity="1"
     objecttolerance="10"
     gridtolerance="10"
     guidetolerance="10"
     inkscape:pageopacity="0"
     inkscape:pageshadow="2"
     inkscape:window-width="1240"
     inkscape:window-height="665"
     id="namedview120964"
     showgrid="false"
     inkscape:zoom="0.41647057"
     inkscape:cx="333.33334"
     inkscape:cy="283.33334"
     inkscape:window-x="0"
     inkscape:window-y="0"
     inkscape:window-maximized="0"
     inkscape:current-layer="g120970" /><g
     id="g120970"
     inkscape:groupmode="layer"
     inkscape:label="2665831"
     transform="matrix(1.3333333,0,0,-1.3333333,0,566.66667)"><g
       id="g120972"><g
         id="g120974"
         clip-path="url(#clipPath120978)"><path
           d="M 0.06,97.044 H 500 v -0.25 H 0.06 Z"
           style="fill:#cadef4;fill-opacity:1;fill-rule:nonzero;stroke:none"
           id="path120980"
           inkscape:connector-curvature="0" /></g></g><path
       d="M 344.518,84.443 H 355 v -0.25 h -10.482 z"
       style="fill:#cadef4;fill-opacity:1;fill-rule:nonzero;stroke:none"
       id="path120982"
       inkscape:connector-curvature="0" /><path
       d="m 64.932,91.005 h 10.13 v -0.25 h -10.13 z"
       style="fill:#cadef4;fill-opacity:1;fill-rule:nonzero;stroke:none"
       id="path120984"
       inkscape:connector-curvature="0" /><path
       d="m 153.448,84.568 h 30.663 v -0.25 h -30.663 z"
       style="fill:#cadef4;fill-opacity:1;fill-rule:nonzero;stroke:none"
       id="path120986"
       inkscape:connector-curvature="0" /><path
       d="M 214.315,90.269 H 234 v -0.25 h -19.685 z"
       style="fill:#cadef4;fill-opacity:1;fill-rule:nonzero;stroke:none"
       id="path120988"
       inkscape:connector-curvature="0" /><path
       d="m 377.176,88.686 h 52.444 v -0.25 h -52.444 z"
       style="fill:#cadef4;fill-opacity:1;fill-rule:nonzero;stroke:none"
       id="path120990"
       inkscape:connector-curvature="0" /><path
       d="m 79.889,91.005 h 43.066 v -0.25 H 79.889 Z"
       style="fill:#cadef4;fill-opacity:1;fill-rule:nonzero;stroke:none"
       id="path120992"
       inkscape:connector-curvature="0" /><path
       d="m 435.451,88.561 h 16.469 v -0.25 h -16.469 z"
       style="fill:#cadef4;fill-opacity:1;fill-rule:nonzero;stroke:none"
       id="path120994"
       inkscape:connector-curvature="0" /><path
       d="m 251.437,157.073 h 27.502 V 97.044 h -27.502 z"
       style="fill:#cadef4;fill-opacity:1;fill-rule:nonzero;stroke:none"
       id="path121004"
       inkscape:connector-curvature="0" /><path
       d="m 279.75,152.208 h 47.869 V 124.739 H 279.75 Z"
       style="fill:#cadef4;fill-opacity:1;fill-rule:nonzero;stroke:none"
       id="path121008"
       inkscape:connector-curvature="0" /><path
       d="m 308.42,148.052 h -9.471 c -4.113,0 -8.046,1.691 -10.875,4.678 h 31.222 c -2.83,-2.987 -6.763,-4.678 -10.876,-4.678"
       style="fill:#ebf8fe;fill-opacity:1;fill-rule:nonzero;stroke:none"
       id="path121010"
       inkscape:connector-curvature="0" /><path
       d="m 360.342,148.052 h -9.471 c -4.113,0 -8.046,1.691 -10.875,4.678 h 31.221 c -2.829,-2.987 -6.762,-4.678 -10.875,-4.678"
       style="fill:#ebf8fe;fill-opacity:1;fill-rule:nonzero;stroke:none"
       id="path121014"
       inkscape:connector-curvature="0" /><path
       d="m 279.604,97.044 h -5.223 v 14.86 h 10.7 l -5.477,-14.86"
       style="fill:#ebf8fe;fill-opacity:1;fill-rule:nonzero;stroke:none"
       id="path121020"
       inkscape:connector-curvature="0" /><path
       d="m 109.887,280.105 41.735,118.236 h 7.681 L 117.567,280.105 h -7.68"
       style="fill:#ffffff;fill-opacity:1;fill-rule:nonzero;stroke:none"
       id="path121036"
       inkscape:connector-curvature="0" /><path
       d="m 204.772,213.775 h 55.561 V 97.044 h -55.561 z"
       style="fill:#cadef4;fill-opacity:1;fill-rule:nonzero;stroke:none"
       id="path121068"
       inkscape:connector-curvature="0" /><path
       d="m 254.745,97.044 h 5.588 v 15.898 h -11.448 l 5.86,-15.898"
       style="fill:#deebf8;fill-opacity:1;fill-rule:nonzero;stroke:none"
       id="path121070"
       inkscape:connector-curvature="0" /><path
       d="m 195.834,199.917 h -12.553 c -5.453,0 -10.666,3.619 -14.416,10.009 h 41.385 c -3.75,-6.39 -8.963,-10.009 -14.416,-10.009"
       style="fill:#deebf8;fill-opacity:1;fill-rule:nonzero;stroke:none"
       id="path121078"
       inkscape:connector-curvature="0" /><path
       d="m 195.834,165.839 h -12.553 c -5.453,0 -10.666,3.619 -14.416,10.009 h 41.385 c -3.75,-6.39 -8.963,-10.009 -14.416,-10.009"
       style="fill:#deebf8;fill-opacity:1;fill-rule:nonzero;stroke:none"
       id="path121084"
       inkscape:connector-curvature="0" /><path
       d="m 195.834,131.761 h -12.553 c -5.453,0 -10.666,3.619 -14.416,10.009 h 41.385 c -3.75,-6.39 -8.963,-10.009 -14.416,-10.009"
       style="fill:#deebf8;fill-opacity:1;fill-rule:nonzero;stroke:none"
       id="path121088"
       inkscape:connector-curvature="0" /><path
       d="m 443.889,63.204 c 0,-6.254 -86.807,-11.323 -193.889,-11.323 -107.082,0 -193.889,5.069 -193.889,11.323 0,6.254 86.807,11.324 193.889,11.324 107.082,0 193.889,-5.07 193.889,-11.324"
       style="fill:#ecf4fb;fill-opacity:1;fill-rule:nonzero;stroke:none"
       id="path121100"
       inkscape:connector-curvature="0" /><path
       d="M 334.672,275.109 H 196.005 c -6.6,0 -12,-5.4 -12,-12 V 81.204 c 0,-6.599 5.4,-12 12,-12 h 138.667 c 6.599,0 12,5.401 12,12 v 181.905 c 0,6.6 -5.401,12 -12,12"
       style="fill:#1b365b;fill-opacity:1;fill-rule:nonzero;stroke:none"
       id="path121102"
       inkscape:connector-curvature="0" /><path
       d="m 358.505,232.665 h 1 v -8.445 h -1 z"
       style="fill:#3459b1;fill-opacity:1;fill-rule:nonzero;stroke:none"
       id="path121104"
       inkscape:connector-curvature="0" /><path
       d="m 358.505,263.11 h 1 v -21.556 h -1 z"
       style="fill:#3459b1;fill-opacity:1;fill-rule:nonzero;stroke:none"
       id="path121106"
       inkscape:connector-curvature="0" /><path
       d="M 344.005,275.109 H 205.338 c -6.6,0 -12,-5.4 -12,-12 V 81.204 c 0,-6.599 5.4,-12 12,-12 h 138.667 c 6.6,0 12,5.401 12,12 v 181.905 c 0,6.6 -5.4,12 -12,12"
       style="fill:#3459b1;fill-opacity:1;fill-rule:nonzero;stroke:none"
       id="path121108"
       inkscape:connector-curvature="0" /><path
       d="M 327.671,92.954 H 221.672 c -2.528,0 -4.584,2.056 -4.584,4.583 v 149.239 c 0,2.527 2.056,4.584 4.584,4.584 h 105.999 c 2.527,0 4.584,-2.057 4.584,-4.584 V 97.537 c 0,-2.527 -2.057,-4.583 -4.584,-4.583 M 221.672,250.86 c -2.252,0 -4.084,-1.832 -4.084,-4.084 V 97.537 c 0,-2.251 1.832,-4.083 4.084,-4.083 h 105.999 c 2.252,0 4.084,1.832 4.084,4.083 v 149.239 c 0,2.252 -1.832,4.084 -4.084,4.084 H 221.672"
       style="fill:#4596d8;fill-opacity:1;fill-rule:nonzero;stroke:none"
       id="path121110"
       inkscape:connector-curvature="0" /><path
       d="M 327.671,95.204 H 221.672 c -1.287,0 -2.334,1.047 -2.334,2.333 v 149.24 c 0,1.286 1.047,2.333 2.334,2.333 h 105.999 c 1.286,0 2.333,-1.047 2.333,-2.333 V 97.537 c 0,-1.286 -1.047,-2.333 -2.333,-2.333 m -52.999,108.135 c -18.833,0 -34.099,-15.267 -34.099,-34.099 0,-18.832 15.266,-34.098 34.099,-34.098 18.832,0 34.099,15.266 34.099,34.098 0,18.832 -15.267,34.099 -34.099,34.099"
       style="fill:#365eb4;fill-opacity:1;fill-rule:nonzero;stroke:none"
       id="path121112"
       inkscape:connector-curvature="0" /><path
       d="m 221.764,65.538 h -13.505 c -0.411,0 -0.748,0.336 -0.748,0.747 v 2.172 c 0,0.411 0.337,0.747 0.748,0.747 h 13.505 c 0.411,0 0.747,-0.336 0.747,-0.747 v -2.172 c 0,-0.411 -0.336,-0.747 -0.747,-0.747"
       style="fill:#1b365b;fill-opacity:1;fill-rule:nonzero;stroke:none"
       id="path121114"
       inkscape:connector-curvature="0" /><path
       d="m 341.084,65.538 h -13.505 c -0.411,0 -0.747,0.336 -0.747,0.747 v 2.172 c 0,0.411 0.336,0.747 0.747,0.747 h 13.505 c 0.411,0 0.748,-0.336 0.748,-0.747 v -2.172 c 0,-0.411 -0.337,-0.747 -0.748,-0.747"
       style="fill:#1b365b;fill-opacity:1;fill-rule:nonzero;stroke:none"
       id="path121116"
       inkscape:connector-curvature="0" /><path
       d="m 219.19,206.256 h -3.703 c -0.815,0 -1.482,0.666 -1.482,1.482 v 20.294 c 0,0.815 0.667,1.481 1.482,1.481 h 3.703 c 0.815,0 1.481,-0.666 1.481,-1.481 v -20.294 c 0,-0.816 -0.666,-1.482 -1.481,-1.482"
       style="fill:#9abee8;fill-opacity:1;fill-rule:nonzero;stroke:none"
       id="path121118"
       inkscape:connector-curvature="0" /><path
       d="m 219.19,114.8 h -3.703 c -0.815,0 -1.482,0.667 -1.482,1.481 v 20.295 c 0,0.816 0.667,1.482 1.482,1.482 h 3.703 c 0.815,0 1.481,-0.666 1.481,-1.482 v -20.295 c 0,-0.814 -0.666,-1.481 -1.481,-1.481"
       style="fill:#9abee8;fill-opacity:1;fill-rule:nonzero;stroke:none"
       id="path121120"
       inkscape:connector-curvature="0" /><path
       d="m 274.672,135.142 c -18.833,0 -34.099,15.266 -34.099,34.098 0,18.832 15.266,34.099 34.099,34.099 18.832,0 34.099,-15.267 34.099,-34.099 0,-18.832 -15.267,-34.098 -34.099,-34.098"
       style="fill:#2f51ab;fill-opacity:1;fill-rule:nonzero;stroke:none"
       id="path121122"
       inkscape:connector-curvature="0" /><path
       d="m 308.771,172.156 c 0,-18.832 -15.267,-34.098 -34.099,-34.098 -18.833,0 -34.099,15.266 -34.099,34.098 0,18.833 15.266,34.1 34.099,34.1 18.832,0 34.099,-15.267 34.099,-34.1"
       style="fill:#9abee8;fill-opacity:1;fill-rule:nonzero;stroke:none"
       id="path121124"
       inkscape:connector-curvature="0" /><path
       d="m 283.005,228.212 c 0,-4.601 -3.732,-8.333 -8.333,-8.333 -4.603,0 -8.334,3.732 -8.334,8.333 0,4.603 3.731,8.334 8.334,8.334 4.601,0 8.333,-3.731 8.333,-8.334"
       style="fill:#9abee8;fill-opacity:1;fill-rule:nonzero;stroke:none"
       id="path121126"
       inkscape:connector-curvature="0" /><path
       d="m 274.672,234.296 c -3.355,0 -6.084,-2.729 -6.084,-6.084 0,-3.354 2.729,-6.083 6.084,-6.083 3.354,0 6.083,2.729 6.083,6.083 0,3.355 -2.729,6.084 -6.083,6.084 z m 0,-12.667 c -3.631,0 -6.584,2.953 -6.584,6.583 0,3.63 2.953,6.584 6.584,6.584 3.63,0 6.583,-2.954 6.583,-6.584 0,-3.63 -2.953,-6.583 -6.583,-6.583"
       style="fill:#3459b1;fill-opacity:1;fill-rule:nonzero;stroke:none"
       id="path121128"
       inkscape:connector-curvature="0" /><path
       d="m 274.672,196.046 c -13.173,0 -23.889,-10.717 -23.889,-23.89 0,-13.171 10.716,-23.888 23.889,-23.888 13.172,0 23.889,10.717 23.889,23.888 0,13.173 -10.717,23.89 -23.889,23.89 z m 0,-49.778 c -14.276,0 -25.889,11.613 -25.889,25.888 0,14.276 11.613,25.89 25.889,25.89 14.275,0 25.889,-11.614 25.889,-25.89 0,-14.275 -11.614,-25.888 -25.889,-25.888"
       style="fill:#3459b1;fill-opacity:1;fill-rule:nonzero;stroke:none"
       id="path121130"
       inkscape:connector-curvature="0" /><path
       d="m 285.505,172.156 c 0,-5.982 -4.851,-10.833 -10.833,-10.833 -5.984,0 -10.834,4.851 -10.834,10.833 0,5.984 4.85,10.834 10.834,10.834 5.982,0 10.833,-4.85 10.833,-10.834"
       style="fill:#3459b1;fill-opacity:1;fill-rule:nonzero;stroke:none"
       id="path121132"
       inkscape:connector-curvature="0" /><path
       d="m 257.794,153.865 -1.414,1.415 35.169,35.168 1.414,-1.414 -35.169,-35.169"
       style="fill:#3459b1;fill-opacity:1;fill-rule:nonzero;stroke:none"
       id="path121134"
       inkscape:connector-curvature="0" /><path
       d="m 291.549,153.865 -35.169,35.169 1.414,1.414 35.169,-35.168 -1.414,-1.415"
       style="fill:#3459b1;fill-opacity:1;fill-rule:nonzero;stroke:none"
       id="path121136"
       inkscape:connector-curvature="0" /><path
       d="m 135.315,80.816 5.878,-5.259 11.183,11.647 -5.877,5.259 -11.184,-11.647"
       style="fill:#723036;fill-opacity:1;fill-rule:nonzero;stroke:none"
       id="path121138"
       inkscape:connector-curvature="0" /><path
       d="m 155.445,69.867 h 7.413 l 0.964,17.168 h -7.414 l -0.963,-17.168"
       style="fill:#723036;fill-opacity:1;fill-rule:nonzero;stroke:none"
       id="path121140"
       inkscape:connector-curvature="0" /><path
       d="m 163.247,70.726 h -8.329 c -0.303,0 -0.531,-0.211 -0.549,-0.507 l -0.404,-6.59 c -0.042,-0.682 0.599,-1.33 1.298,-1.318 2.899,0.051 4.284,0.22 7.947,0.22 2.253,0 11.833,-0.233 14.945,-0.233 3.044,0 3.023,3.076 1.704,3.356 -5.913,1.249 -13.242,2.972 -15.335,4.616 -0.378,0.297 -0.834,0.456 -1.277,0.456"
       style="fill:#1a2847;fill-opacity:1;fill-rule:nonzero;stroke:none"
       id="path121142"
       inkscape:connector-curvature="0" /><path
       d="m 142.814,77.667 -7.145,4.811 c -0.267,0.179 -0.607,0.17 -0.817,-0.024 l -5.461,-5.511 c -0.486,-0.448 -0.327,-1.217 0.263,-1.671 4.557,-3.511 7.851,-6.16 10.445,-9.079 3.033,-3.413 4.625,-3.895 11.625,-3.895 3.238,0 5.069,2.727 3.75,3.145 -11.666,3.694 -8.548,5.299 -11.381,10.709 -0.308,0.587 -0.714,1.135 -1.279,1.515"
       style="fill:#1a2847;fill-opacity:1;fill-rule:nonzero;stroke:none"
       id="path121144"
       inkscape:connector-curvature="0" /><path
       d="m 191.017,316.679 c 2.413,-5.582 4.901,-11.25 7.421,-16.821 2.51,-5.586 5.098,-11.128 7.865,-16.44 0.703,-1.297 1.385,-2.65 2.125,-3.876 l 0.546,-0.939 0.271,-0.467 -0.095,0.094 c -0.123,0.076 -0.038,-0.072 0.243,-0.238 0.557,-0.369 1.708,-0.753 2.939,-0.989 1.247,-0.239 2.623,-0.412 4.036,-0.517 2.837,-0.196 5.821,-0.195 8.824,-0.104 l 4.535,0.19 4.523,0.3 1.166,-5.443 c -6.175,-1.971 -12.338,-3.388 -19.079,-3.818 -1.691,-0.091 -3.422,-0.119 -5.254,0.049 -1.836,0.184 -3.766,0.447 -6.018,1.421 -1.11,0.511 -2.353,1.233 -3.499,2.482 -0.284,0.301 -0.552,0.656 -0.807,1.013 l -1.034,1.557 c -0.943,1.384 -1.743,2.763 -2.6,4.149 -3.249,5.555 -6.143,11.166 -8.862,16.842 -2.711,5.693 -5.249,11.385 -7.63,17.26 l 10.384,4.295"
       style="fill:#723036;fill-opacity:1;fill-rule:nonzero;stroke:none"
       id="path121146"
       inkscape:connector-curvature="0" /><path
       d="m 177.72,317.45 c -2.268,-6.633 11.067,-26.166 11.067,-26.166 l 12.788,7.079 c 0,0 -3.481,9.935 -7.68,17.802 -4.506,8.442 -13.686,8.565 -16.175,1.285"
       style="fill:#9abee8;fill-opacity:1;fill-rule:nonzero;stroke:none"
       id="path121148"
       inkscape:connector-curvature="0" /><path
       d="m 177.526,316.611 c 2.86,1.377 6.159,0.225 9.622,-5.253 3.419,-5.423 6.424,-14.636 6.747,-17.247 l -5.11,-2.827 c 0,0 -12.312,18.037 -11.259,25.327"
       style="fill:#7aaae0;fill-opacity:1;fill-rule:nonzero;stroke:none"
       id="path121150"
       inkscape:connector-curvature="0" /><path
       d="m 232.625,276.526 6.819,2.694 1.661,-6.978 c 0,0 -7.776,-2.321 -8.97,-0.08 l 0.49,4.364"
       style="fill:#723036;fill-opacity:1;fill-rule:nonzero;stroke:none"
       id="path121152"
       inkscape:connector-curvature="0" /><path
       d="m 245.208,277.818 2,-3.834 -6.103,-1.742 -1.661,6.978 5.764,-1.402"
       style="fill:#723036;fill-opacity:1;fill-rule:nonzero;stroke:none"
       id="path121154"
       inkscape:connector-curvature="0" /><path
       d="m 152.373,87.201 -5.764,-6.004 -5.88,5.261 5.763,6.005 5.881,-5.262"
       style="fill:#501f25;fill-opacity:1;fill-rule:nonzero;stroke:none"
       id="path121156"
       inkscape:connector-curvature="0" /><path
       d="m 156.406,87.03 h 7.417 l -0.5,-8.848 h -7.417 l 0.5,8.848"
       style="fill:#501f25;fill-opacity:1;fill-rule:nonzero;stroke:none"
       id="path121158"
       inkscape:connector-curvature="0" /><path
       d="m 186.347,322.523 c 0,0 9.527,-22.387 2.662,-64.078 -11.947,0 -33.839,0 -39.653,0 -0.484,6.087 2.311,35.78 -4.555,64.46 0,0 6.749,1.364 13.216,1.677 5.058,0.244 12.387,0.405 16.856,-10e-4 5.891,-0.536 11.474,-2.058 11.474,-2.058"
       style="fill:#9abee8;fill-opacity:1;fill-rule:nonzero;stroke:none"
       id="path121160"
       inkscape:connector-curvature="0" /><path
       d="m 167.506,305.523 c 0.098,-1.311 -0.739,-2.395 -1.871,-2.423 -1.132,-0.028 -2.13,1.012 -2.228,2.322 -0.099,1.311 0.739,2.395 1.87,2.422 1.132,0.028 2.13,-1.011 2.229,-2.321"
       style="fill:#9abee8;fill-opacity:1;fill-rule:nonzero;stroke:none"
       id="path121162"
       inkscape:connector-curvature="0" /><path
       d="m 174.572,305.695 c 0.099,-1.31 -0.739,-2.394 -1.871,-2.422 -1.132,-0.028 -2.129,1.012 -2.228,2.322 -0.099,1.31 0.739,2.394 1.871,2.422 1.132,0.028 2.13,-1.012 2.228,-2.322"
       style="fill:#9abee8;fill-opacity:1;fill-rule:nonzero;stroke:none"
       id="path121164"
       inkscape:connector-curvature="0" /><path
       d="m 181.639,305.868 c 0.098,-1.311 -0.74,-2.395 -1.871,-2.422 -1.132,-0.028 -2.13,1.011 -2.229,2.321 -0.099,1.311 0.739,2.395 1.871,2.423 1.132,0.028 2.13,-1.012 2.229,-2.322"
       style="fill:#9abee8;fill-opacity:1;fill-rule:nonzero;stroke:none"
       id="path121166"
       inkscape:connector-curvature="0" /><path
       d="m 153.66,315.824 c 0.824,-4.719 -0.273,-16.013 -4.316,-29.063 -0.362,10.044 -1.37,21.689 -3.893,33.291 l -0.002,0.057 c 2.603,0.266 7.426,0.14 8.211,-4.285"
       style="fill:#7aaae0;fill-opacity:1;fill-rule:nonzero;stroke:none"
       id="path121168"
       inkscape:connector-curvature="0" /><path
       d="m 176.49,324.413 c -0.53,0.06 -1.08,0.119 -1.62,0.17 -4.47,0.4 -11.8,0.239 -16.85,0 -0.35,-0.02 -0.69,-0.04 -1.04,-0.06 l 0.09,-0.27 c 0.08,-0.21 1.94,-5.16 12.61,-5.16 4.65,0 7.08,0.77 7.64,2.439 0.37,1.091 -0.22,2.151 -0.83,2.881"
       style="fill:#9abee8;fill-opacity:1;fill-rule:nonzero;stroke:none"
       id="path121170"
       inkscape:connector-curvature="0" /><path
       d="m 159.028,343.562 c 1.252,-5.424 2.658,-15.362 -1.011,-18.98 0,0 1.583,-4.493 11.661,-4.493 11.081,0 5.195,4.492 5.195,4.492 -6.098,1.444 -6.098,5.931 -5.19,10.145 l -10.655,8.836"
       style="fill:#723036;fill-opacity:1;fill-rule:nonzero;stroke:none"
       id="path121172"
       inkscape:connector-curvature="0" /><path
       d="m 163.372,339.957 6.306,-5.226 c -0.219,-0.997 -0.38,-2.009 -0.416,-2.991 -2.323,0.333 -5.584,2.87 -5.913,5.289 -0.164,1.206 -0.154,2.366 0.023,2.928"
       style="fill:#501f25;fill-opacity:1;fill-rule:nonzero;stroke:none"
       id="path121174"
       inkscape:connector-curvature="0" /><path
       d="m 174.84,359.692 c 3.369,-2.177 3.854,-12.659 -1.076,-14.157 -4.93,-1.499 -5.305,18.279 1.076,14.157"
       style="fill:#1a2847;fill-opacity:1;fill-rule:nonzero;stroke:none"
       id="path121176"
       inkscape:connector-curvature="0" /><path
       d="m 156.658,349.245 c 2.259,-7.023 3.222,-11.236 7.78,-14.097 6.854,-4.305 14.876,0.893 14.773,8.375 -0.093,6.734 -3.772,17.088 -11.518,18.384 -7.631,1.278 -13.294,-5.639 -11.035,-12.662"
       style="fill:#723036;fill-opacity:1;fill-rule:nonzero;stroke:none"
       id="path121178"
       inkscape:connector-curvature="0" /><path
       d="m 148.583,355.829 c 2.412,-4.38 8.501,-14.337 11.444,-13.413 2.944,0.924 2.933,8.996 -0.819,14.068 0,0 29.709,-3.013 30.31,13.875 0.614,17.276 -13.7,0.559 -26.286,-4.269 -13.729,-5.265 -20.343,0.075 -14.649,-10.261"
       style="fill:#1a2847;fill-opacity:1;fill-rule:nonzero;stroke:none"
       id="path121180"
       inkscape:connector-curvature="0" /><path
       d="m 155.422,340.688 c 1.436,-1.414 3.381,-2.063 5.023,-2.062 2.47,0.001 2.968,2.337 1.663,4.292 -1.173,1.76 -3.874,3.88 -6.056,2.938 -2.15,-0.929 -2.271,-3.551 -0.63,-5.168"
       style="fill:#723036;fill-opacity:1;fill-rule:nonzero;stroke:none"
       id="path121184"
       inkscape:connector-curvature="0" /><path
       d="m 189.009,258.445 c 0,0 7.809,-54.058 10.476,-83.486 2.138,-23.602 -48.912,-94.031 -48.912,-94.031 l -9.876,9.292 c 0,0 37.288,63.111 34.418,89.39 -2.78,25.453 -12.205,78.835 -12.205,78.835 h 26.099"
       style="fill:#244989;fill-opacity:1;fill-rule:nonzero;stroke:none"
       id="path121186"
       inkscape:connector-curvature="0" /><path
       d="m 175.11,179.613 c -1.43,13.11 -4.63,33.65 -7.38,50.47 1.44,2.82 5.478,8.526 5.478,8.526 3.621,-12.51 11.489,-59.666 0.262,-123.356 -11.699,-18.86 -22.9,-34.32 -22.9,-34.32 l -1.529,24.32 c 10.81,20.34 28.06,56.17 26.069,74.36"
       style="fill:#1f3d6b;fill-opacity:1;fill-rule:nonzero;stroke:none"
       id="path121188"
       inkscape:connector-curvature="0" /><path
       d="m 140.097,90.785 11.076,-10.422 3.566,3.83 -12.667,11.542 -1.975,-4.95"
       style="fill:#3459b1;fill-opacity:1;fill-rule:nonzero;stroke:none"
       id="path121190"
       inkscape:connector-curvature="0" /><path
       d="m 174.909,258.445 c 0,0 0.706,-56.656 -0.496,-77.881 -1.317,-23.244 -7.911,-100.246 -7.911,-100.246 h -13.578 c 0,0 0.405,75.126 -0.413,98.138 -0.888,24.978 -3.188,79.989 -3.188,79.989 h 25.586"
       style="fill:#244989;fill-opacity:1;fill-rule:nonzero;stroke:none"
       id="path121192"
       inkscape:connector-curvature="0" /><path
       d="m 152.376,80.318 h 14.673 l 0.815,5.152 -16.195,-0.805 0.707,-4.347"
       style="fill:#3459b1;fill-opacity:1;fill-rule:nonzero;stroke:none"
       id="path121194"
       inkscape:connector-curvature="0" /><path
       d="m 168.048,349.636 c 0.148,-0.58 0.578,-0.982 0.96,-0.899 0.382,0.084 0.571,0.622 0.423,1.201 -0.148,0.58 -0.577,0.982 -0.959,0.899 -0.382,-0.084 -0.572,-0.621 -0.424,-1.201"
       style="fill:#1a2847;fill-opacity:1;fill-rule:nonzero;stroke:none"
       id="path121196"
       inkscape:connector-curvature="0" /><path
       d="m 174.651,351.08 c 0.148,-0.579 0.578,-0.982 0.959,-0.898 0.382,0.084 0.572,0.621 0.424,1.201 -0.148,0.58 -0.578,0.982 -0.96,0.898 -0.382,-0.083 -0.571,-0.621 -0.423,-1.201"
       style="fill:#1a2847;fill-opacity:1;fill-rule:nonzero;stroke:none"
       id="path121198"
       inkscape:connector-curvature="0" /><path
       d="m 172.625,350.333 c 0,0 2.183,-3.054 4.058,-4.348 -0.789,-1.183 -2.659,-1.13 -2.659,-1.13 l -1.399,5.478"
       style="fill:#590f18;fill-opacity:1;fill-rule:nonzero;stroke:none"
       id="path121200"
       inkscape:connector-curvature="0" /><path
       d="m 171.501,342.745 c -2.028,0 -3.267,1.138 -3.328,1.195 l -0.008,0.248 0.248,0.008 c 0.017,-0.016 1.677,-1.533 4.237,-0.973 0.097,0.02 0.189,-0.039 0.209,-0.133 0.021,-0.095 -0.039,-0.189 -0.133,-0.209 -0.435,-0.096 -0.844,-0.136 -1.225,-0.136"
       style="fill:#1a2847;fill-opacity:1;fill-rule:nonzero;stroke:none"
       id="path121202"
       inkscape:connector-curvature="0" /><path
       d="m 165.432,351.303 -0.14,0.029 c -0.178,0.077 -0.26,0.284 -0.183,0.462 0.766,1.76 2.374,2.014 2.443,2.025 0.189,0.026 0.369,-0.105 0.398,-0.297 0.028,-0.192 -0.104,-0.37 -0.296,-0.398 -0.066,-0.011 -1.299,-0.227 -1.9,-1.61 -0.058,-0.132 -0.187,-0.211 -0.322,-0.211"
       style="fill:#1a2847;fill-opacity:1;fill-rule:nonzero;stroke:none"
       id="path121204"
       inkscape:connector-curvature="0" /><path
       d="m 149.942,282.761 c -2.127,0.749 -4.186,1.672 -5.699,2.649 -0.457,0.295 -0.83,0.612 -1.079,0.87 0.458,2.153 1.054,4.316 1.702,6.486 0.705,2.195 1.452,4.391 2.281,6.579 0.842,2.182 1.713,4.363 2.637,6.526 0.456,1.084 0.924,2.164 1.409,3.23 l 1.435,3.114 -10.003,5.12 c -0.655,-1.253 -1.199,-2.353 -1.731,-3.542 -0.535,-1.169 -1.047,-2.342 -1.548,-3.521 -0.983,-2.366 -1.888,-4.767 -2.696,-7.213 -1.622,-4.891 -2.909,-9.958 -3.55,-15.299 l -0.035,-0.267 -0.048,-0.524 c -0.034,-0.345 -0.025,-0.714 -0.014,-1.073 0.038,-0.725 0.166,-1.46 0.381,-2.139 0.428,-1.369 1.143,-2.496 1.88,-3.33 1.495,-1.667 2.997,-2.531 4.397,-3.258 2.806,-1.384 5.445,-2.021 8.047,-2.581 5.215,-1.019 10.229,-1.317 15.396,-1.197 l 0.458,5.548 c -4.609,1.066 -9.34,2.296 -13.62,3.822"
       style="fill:#723036;fill-opacity:1;fill-rule:nonzero;stroke:none"
       id="path121208"
       inkscape:connector-curvature="0" /><path
       d="m 144.801,322.905 c -6.979,-1.02 -14.169,-26.712 -14.169,-26.712 l 16.868,-6.417 c 0,0 4.24,11.043 7.141,19.628 3.041,8.994 -2.355,14.596 -9.84,13.501"
       style="fill:#9abee8;fill-opacity:1;fill-rule:nonzero;stroke:none"
       id="path121210"
       inkscape:connector-curvature="0" /><path
       d="m 164.359,69.947 c 1.336,-0.267 2.32,-0.227 2.669,0.12 0.145,0.143 0.186,0.347 0.124,0.623 -0.028,0.128 -0.09,0.206 -0.194,0.247 -0.532,0.21 -1.851,-0.515 -2.599,-0.99 z m 1.517,-0.506 c -0.684,0 -1.442,0.14 -1.975,0.264 l -0.126,0.131 0.069,0.168 c 0.236,0.165 2.332,1.594 3.234,1.242 0.208,-0.081 0.346,-0.248 0.399,-0.484 0.087,-0.391 0.015,-0.704 -0.215,-0.932 -0.293,-0.291 -0.814,-0.389 -1.386,-0.389"
       style="fill:#4d6dbe;fill-opacity:1;fill-rule:nonzero;stroke:none"
       id="path121212"
       inkscape:connector-curvature="0" /><path
       d="m 164.952,72.706 c -0.145,0 -0.269,-0.051 -0.376,-0.154 -0.45,-0.434 -0.51,-1.666 -0.488,-2.37 0.617,0.524 1.4,1.698 1.28,2.263 -0.022,0.103 -0.079,0.225 -0.335,0.256 z m -1.014,-3.005 -0.076,0.019 -0.09,0.134 c -0.007,0.09 -0.173,2.219 0.573,2.938 0.2,0.193 0.443,0.274 0.728,0.239 0.338,-0.041 0.558,-0.224 0.62,-0.517 0.171,-0.807 -0.932,-2.351 -1.67,-2.789 l -0.085,-0.024"
       style="fill:#4d6dbe;fill-opacity:1;fill-rule:nonzero;stroke:none"
       id="path121214"
       inkscape:connector-curvature="0" /><path
       d="m 144.574,75.089 c 1.61,-0.884 2.879,-1.271 3.447,-1.034 0.171,0.07 0.279,0.199 0.33,0.392 l -0.042,0.191 c -0.37,0.444 -2.296,0.514 -3.735,0.451 z m 3.041,-1.434 c -1.086,0 -2.724,0.853 -3.697,1.423 l -0.078,0.181 0.15,0.129 c 0.398,0.03 3.907,0.267 4.575,-0.537 0.118,-0.142 0.155,-0.311 0.107,-0.488 -0.077,-0.297 -0.254,-0.504 -0.524,-0.616 -0.154,-0.063 -0.335,-0.092 -0.533,-0.092"
       style="fill:#4d6dbe;fill-opacity:1;fill-rule:nonzero;stroke:none"
       id="path121216"
       inkscape:connector-curvature="0" /><path
       d="m 146.314,77.125 c -0.925,0 -1.71,-1.177 -2.021,-1.714 1.067,0.134 2.703,0.803 2.805,1.277 0.024,0.109 -0.076,0.217 -0.294,0.322 -0.166,0.08 -0.33,0.115 -0.49,0.115 z m -2.312,-2.069 -0.14,0.076 -0.01,0.162 c 0.056,0.116 1.389,2.827 3.096,2.017 0.468,-0.224 0.517,-0.5 0.475,-0.693 -0.172,-0.801 -2.398,-1.539 -3.417,-1.562 h -0.004"
       style="fill:#4d6dbe;fill-opacity:1;fill-rule:nonzero;stroke:none"
       id="path121218"
       inkscape:connector-curvature="0" /><path
       d="m 162.513,279.02 6.082,1.674 0.833,-7.694 c 0,0 -6.016,-1.802 -7.49,1.358 l 0.575,4.662"
       style="fill:#723036;fill-opacity:1;fill-rule:nonzero;stroke:none"
       id="path121220"
       inkscape:connector-curvature="0" /><path
       d="m 162.387,278.867 c 2.009,1.861 2.11,5.051 2.11,5.051 l 1.564,-0.851 c 0,0 0.312,-3.458 -0.297,-4.443 -0.609,-0.984 -3.377,0.243 -3.377,0.243"
       style="fill:#723036;fill-opacity:1;fill-rule:nonzero;stroke:none"
       id="path121222"
       inkscape:connector-curvature="0" /><path
       d="M 171.45,279.933 171.083,273 h -1.655 l -0.833,7.694 2.855,-0.761"
       style="fill:#723036;fill-opacity:1;fill-rule:nonzero;stroke:none"
       id="path121224"
       inkscape:connector-curvature="0" /><path
       d="m 245.464,336.631 c 1.356,-16.986 20.983,-39.078 27.279,-45.763 1.05,-1.114 2.808,-1.114 3.858,0 6.296,6.685 25.922,28.777 27.279,45.763 0.086,1.07 -0.445,2.094 -1.39,2.604 l -26.555,14.333 c -0.789,0.425 -1.738,0.425 -2.526,0 l -26.555,-14.333 c -0.945,-0.51 -1.476,-1.534 -1.39,-2.604"
       style="fill:#3459b1;fill-opacity:1;fill-rule:nonzero;stroke:none"
       id="path121226"
       inkscape:connector-curvature="0" /><path
       d="m 274.675,296.419 c -0.726,0 -1.452,0.297 -1.979,0.89 -8.04,9.054 -19.593,24.13 -22.362,36.176 -0.264,1.147 0.251,2.329 1.271,2.916 l 21.743,12.498 c 0.41,0.235 0.867,0.353 1.325,0.353 0.457,0 0.915,-0.118 1.325,-0.353 L 297.739,336.4 c 1.02,-0.586 1.534,-1.768 1.272,-2.914 -2.764,-12.059 -14.317,-27.13 -22.359,-36.178 -0.526,-0.592 -1.251,-0.889 -1.977,-0.889"
       style="fill:#456ebf;fill-opacity:1;fill-rule:nonzero;stroke:none"
       id="path121228"
       inkscape:connector-curvature="0" /><path
       d="m 271.706,315.567 c -0.384,0 -0.768,0.147 -1.06,0.44 l -7.407,7.405 c -0.586,0.586 -0.586,1.535 0,2.121 0.586,0.586 1.535,0.586 2.121,0 l 6.346,-6.345 14.952,14.953 c 0.586,0.586 1.535,0.586 2.121,0 0.586,-0.585 0.586,-1.535 0,-2.121 l -16.012,-16.013 c -0.293,-0.293 -0.677,-0.44 -1.061,-0.44"
       style="fill:#ffffff;fill-opacity:1;fill-rule:nonzero;stroke:none"
       id="path121230"
       inkscape:connector-curvature="0" /></g></svg>