<svg height="512" viewBox="0 0 64 64" width="512" xmlns="http://www.w3.org/2000/svg"><g id="Wallet-2" data-name="Wallet"><rect fill="#5aaae7" height="58" rx="4" width="34" x="12" y="3"/><path d="m46 24.07v32.93a4 4 0 0 1 -4 4h-26a4 4 0 0 1 -4-4v-.7a111.25 111.25 0 0 0 34-32.23z" fill="#3d9ae2"/><path d="m46 17h-18a3 3 0 0 0 0 6h31v-6z" fill="#cc7400"/><path d="m46 23h-18a3 3 0 0 1 -3-3v23a4 4 0 0 0 4 4h30v-24z" fill="#ff9811"/><path d="m59 31h-6a2.006 2.006 0 0 0 -2 2v4a2.006 2.006 0 0 0 2 2h8v-8z" fill="#cc7400"/><path d="m36 3v2a2.006 2.006 0 0 1 -2 2h-10a2.006 2.006 0 0 1 -2-2v-2z" fill="#ff9811"/><path d="m61 30h-1v-13a1 1 0 0 0 -1-1h-12v-9a5.006 5.006 0 0 0 -5-5h-26a5.006 5.006 0 0 0 -5 5v50a5.006 5.006 0 0 0 5 5h26a5.006 5.006 0 0 0 5-5v-9h12a1 1 0 0 0 1-1v-7h1a1 1 0 0 0 1-1v-8a1 1 0 0 0 -1-1zm-3-8h-30a2 2 0 0 1 0-4h30zm-35-18h12v1a1 1 0 0 1 -1 1h-10a1 1 0 0 1 -1-1zm22 53a3 3 0 0 1 -3 3h-26a3 3 0 0 1 -3-3v-50a3 3 0 0 1 3-3h5v1a3 3 0 0 0 3 3h10a3 3 0 0 0 3-3v-1h5a3 3 0 0 1 3 3v9h-17a4 4 0 0 0 -4 4v23a5.006 5.006 0 0 0 5 5h16zm13-11h-29a3 3 0 0 1 -3-3v-19.556a3.959 3.959 0 0 0 2 .556h30v6h-5a3 3 0 0 0 -3 3v4a3 3 0 0 0 3 3h5zm2-8h-7a1 1 0 0 1 -1-1v-4a1 1 0 0 1 1-1h7z"/><path d="m54 34h2v2h-2z"/><path d="m39 32h2a1 1 0 0 1 1 1h2a3 3 0 0 0 -3-3v-2h-2v2a3 3 0 0 0 0 6h2a1 1 0 0 1 0 2h-2a1 1 0 0 1 -1-1h-2a3 3 0 0 0 3 3v2h2v-2a3 3 0 0 0 0-6h-2a1 1 0 0 1 0-2z"/></g></svg>